<svg xmlns="http://www.w3.org/2000/svg" xmlns:xlink="http://www.w3.org/1999/xlink" width="48" height="44" viewBox="0 0 48 44">
  <defs>
    <clipPath id="clip-Artboard_10">
      <rect width="48" height="44"/>
    </clipPath>
  </defs>
  <g id="Artboard_10" data-name="Artboard – 10" clip-path="url(#clip-Artboard_10)">
    <g id="Group_17585" data-name="Group 17585" transform="translate(5.134 5.156)">
      <g id="Group_17584" data-name="Group 17584" transform="translate(0 -2)">
        <ellipse id="Ellipse_16" data-name="Ellipse 16" cx="19.5" cy="19" rx="19.5" ry="19" transform="translate(-0.134 -0.156)" fill="#eaeffe"/>
        <g id="Group_17558" data-name="Group 17558" transform="translate(10.206 9.808)">
          <path id="Path_12940" data-name="Path 12940" d="M39.267,32.363A4.523,4.523,0,0,0,31,30.1a2.552,2.552,0,0,0-.4,1.594c0,.045,0,.089,0,.136a3.536,3.536,0,0,1-.2,1.258,11.659,11.659,0,0,1-.58,1.413.575.575,0,0,0,.017.537.562.562,0,0,0,.451.28,3.662,3.662,0,0,0,.6-.018,2.408,2.408,0,0,0,.28,1.62,1.523,1.523,0,0,0,1.362.542,6.614,6.614,0,0,0,1.689-.268,4.073,4.073,0,0,1,.115.956.238.238,0,0,0,.152.221,3.7,3.7,0,0,0,1.228.183,5.361,5.361,0,0,0,2.586-.7.234.234,0,0,0,.1-.3,4.416,4.416,0,0,1-.169-1.165,4.08,4.08,0,0,1,.15-1.1,4.529,4.529,0,0,0,.869-2.94Zm-4.456,5.614a4.44,4.44,0,0,0-.185-1.115.082.082,0,0,0,0-.033.237.237,0,0,0-.3-.15c-.592.194-2.369.608-2.75,0A2.144,2.144,0,0,1,31.42,35.1a.234.234,0,0,0-.259-.3,4.026,4.026,0,0,1-.838.056.09.09,0,0,1-.072-.045.1.1,0,0,1,0-.094,11.777,11.777,0,0,0,.605-1.475,4.007,4.007,0,0,0,.221-1.4c0-.054,0-.108,0-.162a2.108,2.108,0,0,1,.319-1.305,4.053,4.053,0,1,1,6.6,4.7c-.007.007-.007.017-.012.026a.2.2,0,0,0-.026.05,4.555,4.555,0,0,0-.179,1.261,5.453,5.453,0,0,0,.141,1.139,4.546,4.546,0,0,1-3.106.439Z" transform="translate(-25.227 -23.954)"/>
          <path id="Path_12941" data-name="Path 12941" d="M27.732,17.026a.658.658,0,1,0,0-.47h-1.4v-.423a3.049,3.049,0,0,0-3.045-3.045h-.423V10.842a.235.235,0,1,0-.47,0v2.247H19.944V10.842a.235.235,0,0,0-.47,0v2.247H17.021v-1.4a.66.66,0,1,0-.471,0v1.4h-.423a3.049,3.049,0,0,0-3.045,3.045v.423H10.836a.235.235,0,0,0,0,.47h2.247V19.48H10.836a.235.235,0,1,0,0,.47h2.247V22.4h-1.4a.658.658,0,1,0,0,.47h1.4V23.3a3.049,3.049,0,0,0,3.045,3.045h.423v2.247a.235.235,0,0,0,.47,0V26.34h2.453v2.247a.235.235,0,0,0,.47,0V26.34H22.4v1.4a.66.66,0,1,0,.47,0v-1.4h.423A3.049,3.049,0,0,0,26.334,23.3v-.423h2.247a.235.235,0,0,0,0-.47H26.334V19.949h2.247a.235.235,0,1,0,0-.47H26.334V17.026ZM25.866,23.3a2.578,2.578,0,0,1-2.575,2.575H16.129A2.578,2.578,0,0,1,13.553,23.3V16.134a2.578,2.578,0,0,1,2.575-2.575H23.29a2.578,2.578,0,0,1,2.575,2.575Z" transform="translate(-10.414 -10.422)"/>
          <path id="Path_12942" data-name="Path 12942" d="M44.081,36.144a.83.83,0,0,0-.817-.516.354.354,0,0,1-.28-.108.366.366,0,0,1-.108-.28.838.838,0,0,0-1.46-.6.375.375,0,0,1-.547,0,.838.838,0,0,0-1.46.6.367.367,0,0,1-.108.28.357.357,0,0,1-.28.108.838.838,0,0,0-.6,1.46.371.371,0,0,1,.122.275.367.367,0,0,1-.122.275.838.838,0,0,0,.6,1.46.358.358,0,0,1,.28.108.366.366,0,0,1,.108.28.837.837,0,0,0,1.457.606.375.375,0,0,1,.547,0,.838.838,0,0,0,1.46-.6.371.371,0,0,1,.388-.388.838.838,0,0,0,.6-1.46.371.371,0,0,1-.122-.275.367.367,0,0,1,.122-.275.832.832,0,0,0,.214-.944Zm-.528,1.838a.369.369,0,0,1-.266.643.837.837,0,0,0-.88.88.359.359,0,0,1-.227.36.363.363,0,0,1-.415-.094.837.837,0,0,0-1.244,0,.369.369,0,0,1-.643-.266.84.84,0,0,0-.836-.883H39a.369.369,0,0,1-.266-.643.837.837,0,0,0,0-1.244A.369.369,0,0,1,39,36.093a.837.837,0,0,0,.88-.88.369.369,0,0,1,.643-.266.837.837,0,0,0,1.244,0,.362.362,0,0,1,.415-.094.357.357,0,0,1,.227.36.846.846,0,0,0,.244.637.831.831,0,0,0,.637.244.359.359,0,0,1,.36.227.363.363,0,0,1-.094.415.837.837,0,0,0,0,1.244Z" transform="translate(-31.628 -28.737)"/>
          <path id="Path_12943" data-name="Path 12943" d="M45.692,40.3A1.611,1.611,0,1,0,47.3,41.912,1.613,1.613,0,0,0,45.692,40.3Zm0,2.752a1.141,1.141,0,1,1,1.141-1.141A1.142,1.142,0,0,1,45.692,43.053Z" transform="translate(-36.177 -33.286)"/>
        </g>
        <ellipse id="Ellipse_27" data-name="Ellipse 27" cx="19.5" cy="19" rx="19.5" ry="19" transform="translate(-0.134 -0.156)" fill="#eaeffe"/>
        <g id="Group_17570" data-name="Group 17570" transform="translate(10.206 9.808)">
          <path id="Path_12940-2" data-name="Path 12940" d="M39.267,32.363A4.523,4.523,0,0,0,31,30.1a2.552,2.552,0,0,0-.4,1.594c0,.045,0,.089,0,.136a3.536,3.536,0,0,1-.2,1.258,11.659,11.659,0,0,1-.58,1.413.575.575,0,0,0,.017.537.562.562,0,0,0,.451.28,3.662,3.662,0,0,0,.6-.018,2.408,2.408,0,0,0,.28,1.62,1.523,1.523,0,0,0,1.362.542,6.614,6.614,0,0,0,1.689-.268,4.073,4.073,0,0,1,.115.956.238.238,0,0,0,.152.221,3.7,3.7,0,0,0,1.228.183,5.361,5.361,0,0,0,2.586-.7.234.234,0,0,0,.1-.3,4.416,4.416,0,0,1-.169-1.165,4.08,4.08,0,0,1,.15-1.1,4.529,4.529,0,0,0,.869-2.94Zm-4.456,5.614a4.44,4.44,0,0,0-.185-1.115.082.082,0,0,0,0-.033.237.237,0,0,0-.3-.15c-.592.194-2.369.608-2.75,0A2.144,2.144,0,0,1,31.42,35.1a.234.234,0,0,0-.259-.3,4.026,4.026,0,0,1-.838.056.09.09,0,0,1-.072-.045.1.1,0,0,1,0-.094,11.777,11.777,0,0,0,.605-1.475,4.007,4.007,0,0,0,.221-1.4c0-.054,0-.108,0-.162a2.108,2.108,0,0,1,.319-1.305,4.053,4.053,0,1,1,6.6,4.7c-.007.007-.007.017-.012.026a.2.2,0,0,0-.026.05,4.555,4.555,0,0,0-.179,1.261,5.453,5.453,0,0,0,.141,1.139,4.546,4.546,0,0,1-3.106.439Z" transform="translate(-25.227 -23.954)"/>
          <path id="Path_12941-2" data-name="Path 12941" d="M27.732,17.026a.658.658,0,1,0,0-.47h-1.4v-.423a3.049,3.049,0,0,0-3.045-3.045h-.423V10.842a.235.235,0,1,0-.47,0v2.247H19.944V10.842a.235.235,0,0,0-.47,0v2.247H17.021v-1.4a.66.66,0,1,0-.471,0v1.4h-.423a3.049,3.049,0,0,0-3.045,3.045v.423H10.836a.235.235,0,0,0,0,.47h2.247V19.48H10.836a.235.235,0,1,0,0,.47h2.247V22.4h-1.4a.658.658,0,1,0,0,.47h1.4V23.3a3.049,3.049,0,0,0,3.045,3.045h.423v2.247a.235.235,0,0,0,.47,0V26.34h2.453v2.247a.235.235,0,0,0,.47,0V26.34H22.4v1.4a.66.66,0,1,0,.47,0v-1.4h.423A3.049,3.049,0,0,0,26.334,23.3v-.423h2.247a.235.235,0,0,0,0-.47H26.334V19.949h2.247a.235.235,0,1,0,0-.47H26.334V17.026ZM25.866,23.3a2.578,2.578,0,0,1-2.575,2.575H16.129A2.578,2.578,0,0,1,13.553,23.3V16.134a2.578,2.578,0,0,1,2.575-2.575H23.29a2.578,2.578,0,0,1,2.575,2.575Z" transform="translate(-10.414 -10.422)"/>
          <path id="Path_12942-2" data-name="Path 12942" d="M44.081,36.144a.83.83,0,0,0-.817-.516.354.354,0,0,1-.28-.108.366.366,0,0,1-.108-.28.838.838,0,0,0-1.46-.6.375.375,0,0,1-.547,0,.838.838,0,0,0-1.46.6.367.367,0,0,1-.108.28.357.357,0,0,1-.28.108.838.838,0,0,0-.6,1.46.371.371,0,0,1,.122.275.367.367,0,0,1-.122.275.838.838,0,0,0,.6,1.46.358.358,0,0,1,.28.108.366.366,0,0,1,.108.28.837.837,0,0,0,1.457.606.375.375,0,0,1,.547,0,.838.838,0,0,0,1.46-.6.371.371,0,0,1,.388-.388.838.838,0,0,0,.6-1.46.371.371,0,0,1-.122-.275.367.367,0,0,1,.122-.275.832.832,0,0,0,.214-.944Zm-.528,1.838a.369.369,0,0,1-.266.643.837.837,0,0,0-.88.88.359.359,0,0,1-.227.36.363.363,0,0,1-.415-.094.837.837,0,0,0-1.244,0,.369.369,0,0,1-.643-.266.84.84,0,0,0-.836-.883H39a.369.369,0,0,1-.266-.643.837.837,0,0,0,0-1.244A.369.369,0,0,1,39,36.093a.837.837,0,0,0,.88-.88.369.369,0,0,1,.643-.266.837.837,0,0,0,1.244,0,.362.362,0,0,1,.415-.094.357.357,0,0,1,.227.36.846.846,0,0,0,.244.637.831.831,0,0,0,.637.244.359.359,0,0,1,.36.227.363.363,0,0,1-.094.415.837.837,0,0,0,0,1.244Z" transform="translate(-31.628 -28.737)"/>
          <path id="Path_12943-2" data-name="Path 12943" d="M45.692,40.3A1.611,1.611,0,1,0,47.3,41.912,1.613,1.613,0,0,0,45.692,40.3Zm0,2.752a1.141,1.141,0,1,1,1.141-1.141A1.142,1.142,0,0,1,45.692,43.053Z" transform="translate(-36.177 -33.286)"/>
        </g>
      </g>
    </g>
  </g>
</svg>
