<svg xmlns="http://www.w3.org/2000/svg" xmlns:xlink="http://www.w3.org/1999/xlink" width="48" height="44" viewBox="0 0 48 44">
  <defs>
    <clipPath id="clip-Artboard_9">
      <rect width="48" height="44"/>
    </clipPath>
  </defs>
  <g id="Artboard_9" data-name="Artboard – 9" clip-path="url(#clip-Artboard_9)">
    <g id="Group_17583" data-name="Group 17583" transform="translate(6.4 6.4)">
      <g id="Group_17582" data-name="Group 17582" transform="translate(0 -2)">
        <circle id="Ellipse_15" data-name="Ellipse 15" cx="18.5" cy="18.5" r="18.5" transform="translate(-0.4 -0.4)" fill="#eaeffe"/>
        <g id="Group_17557" data-name="Group 17557" transform="translate(8.469 8.986)">
          <g id="Group_17557-2" data-name="Group 17557" transform="translate(0 0)">
            <path id="Path_12939" data-name="Path 12939" d="M14.489,14.793a2.832,2.832,0,1,0-3.076,2.819v2.623H9.888a.244.244,0,0,0-.243.243v3.537a.244.244,0,0,0,.243.243h3.537a.244.244,0,0,0,.243-.243V22.49h3.448a2.011,2.011,0,1,0,2.24-2.24V16.386l.757.313a.243.243,0,0,0,.335-.243l-.084-1.079.7-.823a.243.243,0,0,0-.128-.394l-1.052-.254-.566-.922a.252.252,0,0,0-.415,0l-.566.922-1.052.254a.243.243,0,0,0-.128.394l.7.823-.084,1.079a.242.242,0,0,0,.1.216.243.243,0,0,0,.235.029l.757-.313v3.865A2.013,2.013,0,0,0,17.116,22H13.668V20.478a.244.244,0,0,0-.243-.243H11.9V17.612a2.834,2.834,0,0,0,2.589-2.819Zm3.807.345-.51-.6.764-.184a.24.24,0,0,0,.15-.109l.412-.67.412.67a.243.243,0,0,0,.15.109l.764.184-.51.6a.242.242,0,0,0-.057.177l.061.784-.727-.3a.247.247,0,0,0-.186,0l-.727.3.061-.784a.244.244,0,0,0-.057-.177Zm.816,5.584a1.525,1.525,0,1,1-1.525,1.525,1.527,1.527,0,0,1,1.525-1.525Zm-5.93,3.05h-3.05v-3.05h3.05Zm-2.84-7.04v-.218a1.1,1.1,0,0,1,1.1-1.1h.433a1.1,1.1,0,0,1,1.1,1.1v.218a2.341,2.341,0,0,1-2.63,0Zm-1.03-1.94a2.345,2.345,0,1,1,4.131,1.515,1.587,1.587,0,0,0-1.57-1.378H11.44a1.587,1.587,0,0,0-1.57,1.378,2.336,2.336,0,0,1-.558-1.515Zm2.344.021A1.018,1.018,0,1,0,10.64,13.8,1.019,1.019,0,0,0,11.657,14.813Zm0-1.549a.531.531,0,1,1-.531.531A.532.532,0,0,1,11.657,13.265Zm12.351,5.77a9.08,9.08,0,0,1-17.986.583l-.584.756a.243.243,0,0,1-.385-.3l.938-1.215,0,0a.25.25,0,0,1,.068-.06l0,0a.242.242,0,0,1,.082-.027l.008,0h0a.244.244,0,0,1,.08.006l.01,0a.237.237,0,0,1,.077.038l.007,0,1.215.938a.243.243,0,1,1-.3.384l-.744-.575a8.593,8.593,0,0,0,17.017-.581.243.243,0,1,1,.484.049Zm.889-2.891-.938,1.215,0,0a.211.211,0,0,1-.036.037l-.012.009a.274.274,0,0,1-.031.02l-.019.008-.029.01-.023,0-.016,0-.024,0h0a.242.242,0,0,1-.081-.016.3.3,0,0,1-.029-.015.318.318,0,0,1-.038-.02L22.4,16.466a.243.243,0,1,1,.3-.384l.744.574a8.594,8.594,0,0,0-17.018.581.243.243,0,0,1-.484-.049A9.08,9.08,0,0,1,23.928,16.6l.584-.756a.243.243,0,0,1,.384.3Z" transform="translate(-5.001 -9.03)"/>
          </g>
        </g>
        <circle id="Ellipse_26" data-name="Ellipse 26" cx="18.5" cy="18.5" r="18.5" transform="translate(-0.4 -0.4)" fill="#eaeffe"/>
        <g id="Group_17569" data-name="Group 17569" transform="translate(8.469 8.986)">
          <g id="Group_17557-3" data-name="Group 17557" transform="translate(0 0)">
            <path id="Path_12939-2" data-name="Path 12939" d="M14.489,14.793a2.832,2.832,0,1,0-3.076,2.819v2.623H9.888a.244.244,0,0,0-.243.243v3.537a.244.244,0,0,0,.243.243h3.537a.244.244,0,0,0,.243-.243V22.49h3.448a2.011,2.011,0,1,0,2.24-2.24V16.386l.757.313a.243.243,0,0,0,.335-.243l-.084-1.079.7-.823a.243.243,0,0,0-.128-.394l-1.052-.254-.566-.922a.252.252,0,0,0-.415,0l-.566.922-1.052.254a.243.243,0,0,0-.128.394l.7.823-.084,1.079a.242.242,0,0,0,.1.216.243.243,0,0,0,.235.029l.757-.313v3.865A2.013,2.013,0,0,0,17.116,22H13.668V20.478a.244.244,0,0,0-.243-.243H11.9V17.612a2.834,2.834,0,0,0,2.589-2.819Zm3.807.345-.51-.6.764-.184a.24.24,0,0,0,.15-.109l.412-.67.412.67a.243.243,0,0,0,.15.109l.764.184-.51.6a.242.242,0,0,0-.057.177l.061.784-.727-.3a.247.247,0,0,0-.186,0l-.727.3.061-.784a.244.244,0,0,0-.057-.177Zm.816,5.584a1.525,1.525,0,1,1-1.525,1.525,1.527,1.527,0,0,1,1.525-1.525Zm-5.93,3.05h-3.05v-3.05h3.05Zm-2.84-7.04v-.218a1.1,1.1,0,0,1,1.1-1.1h.433a1.1,1.1,0,0,1,1.1,1.1v.218a2.341,2.341,0,0,1-2.63,0Zm-1.03-1.94a2.345,2.345,0,1,1,4.131,1.515,1.587,1.587,0,0,0-1.57-1.378H11.44a1.587,1.587,0,0,0-1.57,1.378,2.336,2.336,0,0,1-.558-1.515Zm2.344.021A1.018,1.018,0,1,0,10.64,13.8,1.019,1.019,0,0,0,11.657,14.813Zm0-1.549a.531.531,0,1,1-.531.531A.532.532,0,0,1,11.657,13.265Zm12.351,5.77a9.08,9.08,0,0,1-17.986.583l-.584.756a.243.243,0,0,1-.385-.3l.938-1.215,0,0a.25.25,0,0,1,.068-.06l0,0a.242.242,0,0,1,.082-.027l.008,0h0a.244.244,0,0,1,.08.006l.01,0a.237.237,0,0,1,.077.038l.007,0,1.215.938a.243.243,0,1,1-.3.384l-.744-.575a8.593,8.593,0,0,0,17.017-.581.243.243,0,1,1,.484.049Zm.889-2.891-.938,1.215,0,0a.211.211,0,0,1-.036.037l-.012.009a.274.274,0,0,1-.031.02l-.019.008-.029.01-.023,0-.016,0-.024,0h0a.242.242,0,0,1-.081-.016.3.3,0,0,1-.029-.015.318.318,0,0,1-.038-.02L22.4,16.466a.243.243,0,1,1,.3-.384l.744.574a8.594,8.594,0,0,0-17.018.581.243.243,0,0,1-.484-.049A9.08,9.08,0,0,1,23.928,16.6l.584-.756a.243.243,0,0,1,.384.3Z" transform="translate(-5.001 -9.03)"/>
          </g>
        </g>
      </g>
    </g>
  </g>
</svg>
