<svg xmlns="http://www.w3.org/2000/svg" xmlns:xlink="http://www.w3.org/1999/xlink" width="48" height="44" viewBox="0 0 48 44">
  <defs>
    <clipPath id="clip-Artboard_5">
      <rect width="48" height="44"/>
    </clipPath>
  </defs>
  <g id="Artboard_5" data-name="Artboard – 5" clip-path="url(#clip-Artboard_5)">
    <g id="Group_17576" data-name="Group 17576" transform="translate(2 1)">
      <ellipse id="Ellipse_7" data-name="Ellipse 7" cx="17" cy="16.5" rx="17" ry="16.5" transform="translate(5 5)" fill="#eaeffe"/>
      <g id="Group_17529" data-name="Group 17529" transform="translate(13.831 13.584)">
        <path id="Path_12896" data-name="Path 12896" d="M18.83,9.689H16.915a.671.671,0,0,0-.671.671v8.468a.671.671,0,0,0,.671.671H18.83a.671.671,0,0,0,.671-.671V10.36a.671.671,0,0,0-.67-.671Zm.355,9.139a.356.356,0,0,1-.355.355H16.915a.356.356,0,0,1-.355-.355V10.36a.355.355,0,0,1,.355-.354H18.83a.355.355,0,0,1,.355.354ZM14.748,11.8H12.834a.671.671,0,0,0-.671.671v6.36a.671.671,0,0,0,.671.671h1.914a.671.671,0,0,0,.671-.671V12.47a.672.672,0,0,0-.671-.673Zm.355,7.031a.356.356,0,0,1-.355.355H12.834a.355.355,0,0,1-.354-.355V12.47a.354.354,0,0,1,.354-.354h1.914a.355.355,0,0,1,.355.354Zm-4.437-4.922H8.752a.671.671,0,0,0-.671.671v4.25a.671.671,0,0,0,.671.671h1.914a.671.671,0,0,0,.671-.671v-4.25A.672.672,0,0,0,10.667,13.907Zm.355,4.922a.355.355,0,0,1-.354.355H8.752a.356.356,0,0,1-.355-.355V14.578a.355.355,0,0,1,.355-.354h1.914a.354.354,0,0,1,.354.354v4.251ZM6.585,16.016H4.67A.671.671,0,0,0,4,16.686v2.14a.671.671,0,0,0,.671.671H6.585a.671.671,0,0,0,.671-.671v-2.14a.671.671,0,0,0-.67-.671Zm.355,2.813a.355.355,0,0,1-.354.355H4.67a.355.355,0,0,1-.354-.355v-2.14a.354.354,0,0,1,.354-.354H6.584a.354.354,0,0,1,.354.354v2.14ZM5.217,12.341a.252.252,0,0,0,.246.234c.106,0,.214,0,.322,0a16.257,16.257,0,0,0,6.743-1.51,13.016,13.016,0,0,0,4.827-3.726l.455.263a.317.317,0,0,0,.337-.012.313.313,0,0,0,.135-.308L17.85,4.438a.4.4,0,0,0-.2-.295.408.408,0,0,0-.355-.027l-2.679,1.05a.317.317,0,0,0-.044.569l.431.25a10.8,10.8,0,0,1-3.357,3.6,15.427,15.427,0,0,1-6.217,2.489.252.252,0,0,0-.21.268Zm6.609-2.5A11.046,11.046,0,0,0,15.355,6a.16.16,0,0,0-.061-.211L14.73,5.46l2.679-1.05a.085.085,0,0,1,.036-.007.1.1,0,0,1,.045.013.09.09,0,0,1,.047.067l.431,2.847L17.394,7a.158.158,0,0,0-.205.042A12.613,12.613,0,0,1,12.4,10.782a16,16,0,0,1-6.247,1.477,15.615,15.615,0,0,0,5.678-2.415ZM4.278,8.029l.381.069a.022.022,0,0,1,.018.017,2.74,2.74,0,0,0,.255.614.019.019,0,0,1,0,.025l-.221.319a.338.338,0,0,0,.039.433l.472.472a.338.338,0,0,0,.433.039L5.972,9.8a.021.021,0,0,1,.025,0,2.828,2.828,0,0,0,.614.255.022.022,0,0,1,.017.018l.069.381a.34.34,0,0,0,.334.28H7.7a.34.34,0,0,0,.334-.28l.069-.381a.022.022,0,0,1,.017-.018,2.74,2.74,0,0,0,.614-.255.019.019,0,0,1,.025,0l.319.221a.338.338,0,0,0,.433-.039l.472-.472a.338.338,0,0,0,.039-.433L9.8,8.754a.021.021,0,0,1,0-.025,2.828,2.828,0,0,0,.255-.614A.022.022,0,0,1,10.07,8.1l.381-.069a.34.34,0,0,0,.28-.334V7.028a.34.34,0,0,0-.28-.334l-.381-.069a.022.022,0,0,1-.018-.017A2.74,2.74,0,0,0,9.8,5.994a.019.019,0,0,1,0-.025l.221-.319a.339.339,0,0,0-.039-.433l-.472-.472a.344.344,0,0,0-.434-.038l-.319.221a.021.021,0,0,1-.025,0,2.828,2.828,0,0,0-.614-.255A.022.022,0,0,1,8.1,4.656l-.069-.381A.34.34,0,0,0,7.7,4H7.03a.338.338,0,0,0-.334.28l-.068.382a.022.022,0,0,1-.017.018A2.74,2.74,0,0,0,6,4.93a.019.019,0,0,1-.025,0l-.319-.221a.338.338,0,0,0-.433.039l-.472.472a.338.338,0,0,0-.039.433l.221.319a.021.021,0,0,1,0,.025,2.828,2.828,0,0,0-.255.614.022.022,0,0,1-.018.017L4.277,6.7A.34.34,0,0,0,4,7.029V7.7a.341.341,0,0,0,.28.332Zm.037-1A.023.023,0,0,1,4.333,7l.381-.069a.336.336,0,0,0,.266-.243,2.382,2.382,0,0,1,.226-.542.34.34,0,0,0-.017-.361L4.969,5.47a.023.023,0,0,1,0-.03l.472-.472a.023.023,0,0,1,.03,0l.319.221a.34.34,0,0,0,.361.017A2.553,2.553,0,0,1,6.7,4.976a.339.339,0,0,0,.243-.266l.069-.377a.021.021,0,0,1,.024-.018H7.7a.023.023,0,0,1,.024.018l.069.381a.336.336,0,0,0,.243.266,2.382,2.382,0,0,1,.542.226.34.34,0,0,0,.361-.017l.319-.221a.023.023,0,0,1,.03,0l.472.472a.023.023,0,0,1,0,.03l-.221.319a.34.34,0,0,0-.017.361A2.553,2.553,0,0,1,9.75,6.7a.339.339,0,0,0,.266.243l.381.069a.021.021,0,0,1,.018.024V7.7a.023.023,0,0,1-.018.024l-.381.069a.336.336,0,0,0-.266.243,2.345,2.345,0,0,1-.226.542.34.34,0,0,0,.017.361l.221.319a.023.023,0,0,1,0,.03l-.472.472a.023.023,0,0,1-.03,0l-.319-.221a.34.34,0,0,0-.361-.017,2.553,2.553,0,0,1-.542.226.339.339,0,0,0-.243.266l-.069.381a.021.021,0,0,1-.024.018H7.032a.023.023,0,0,1-.024-.018l-.069-.381A.336.336,0,0,0,6.7,9.75a2.382,2.382,0,0,1-.542-.226.329.329,0,0,0-.167-.044.343.343,0,0,0-.194.061l-.319.221a.023.023,0,0,1-.03,0l-.472-.472a.023.023,0,0,1,0-.03l.221-.319a.34.34,0,0,0,.017-.361,2.553,2.553,0,0,1-.226-.542.339.339,0,0,0-.266-.243l-.38-.072A.021.021,0,0,1,4.317,7.7V7.028ZM7.363,9A1.637,1.637,0,1,0,5.727,7.361,1.638,1.638,0,0,0,7.363,9Zm0-2.956A1.321,1.321,0,1,1,6.042,7.363,1.322,1.322,0,0,1,7.363,6.042Z" transform="translate(-3.998 -3.995)" fill="#08152e"/>
      </g>
      <ellipse id="Ellipse_19" data-name="Ellipse 19" cx="17" cy="16.5" rx="17" ry="16.5" transform="translate(5 5)" fill="#eaeffe"/>
      <g id="Group_17562" data-name="Group 17562" transform="translate(13.831 13.584)">
        <path id="Path_12896-2" data-name="Path 12896" d="M18.83,9.689H16.915a.671.671,0,0,0-.671.671v8.468a.671.671,0,0,0,.671.671H18.83a.671.671,0,0,0,.671-.671V10.36a.671.671,0,0,0-.67-.671Zm.355,9.139a.356.356,0,0,1-.355.355H16.915a.356.356,0,0,1-.355-.355V10.36a.355.355,0,0,1,.355-.354H18.83a.355.355,0,0,1,.355.354ZM14.748,11.8H12.834a.671.671,0,0,0-.671.671v6.36a.671.671,0,0,0,.671.671h1.914a.671.671,0,0,0,.671-.671V12.47a.672.672,0,0,0-.671-.673Zm.355,7.031a.356.356,0,0,1-.355.355H12.834a.355.355,0,0,1-.354-.355V12.47a.354.354,0,0,1,.354-.354h1.914a.355.355,0,0,1,.355.354Zm-4.437-4.922H8.752a.671.671,0,0,0-.671.671v4.25a.671.671,0,0,0,.671.671h1.914a.671.671,0,0,0,.671-.671v-4.25A.672.672,0,0,0,10.667,13.907Zm.355,4.922a.355.355,0,0,1-.354.355H8.752a.356.356,0,0,1-.355-.355V14.578a.355.355,0,0,1,.355-.354h1.914a.354.354,0,0,1,.354.354v4.251ZM6.585,16.016H4.67A.671.671,0,0,0,4,16.686v2.14a.671.671,0,0,0,.671.671H6.585a.671.671,0,0,0,.671-.671v-2.14a.671.671,0,0,0-.67-.671Zm.355,2.813a.355.355,0,0,1-.354.355H4.67a.355.355,0,0,1-.354-.355v-2.14a.354.354,0,0,1,.354-.354H6.584a.354.354,0,0,1,.354.354v2.14ZM5.217,12.341a.252.252,0,0,0,.246.234c.106,0,.214,0,.322,0a16.257,16.257,0,0,0,6.743-1.51,13.016,13.016,0,0,0,4.827-3.726l.455.263a.317.317,0,0,0,.337-.012.313.313,0,0,0,.135-.308L17.85,4.438a.4.4,0,0,0-.2-.295.408.408,0,0,0-.355-.027l-2.679,1.05a.317.317,0,0,0-.044.569l.431.25a10.8,10.8,0,0,1-3.357,3.6,15.427,15.427,0,0,1-6.217,2.489.252.252,0,0,0-.21.268Zm6.609-2.5A11.046,11.046,0,0,0,15.355,6a.16.16,0,0,0-.061-.211L14.73,5.46l2.679-1.05a.085.085,0,0,1,.036-.007.1.1,0,0,1,.045.013.09.09,0,0,1,.047.067l.431,2.847L17.394,7a.158.158,0,0,0-.205.042A12.613,12.613,0,0,1,12.4,10.782a16,16,0,0,1-6.247,1.477,15.615,15.615,0,0,0,5.678-2.415ZM4.278,8.029l.381.069a.022.022,0,0,1,.018.017,2.74,2.74,0,0,0,.255.614.019.019,0,0,1,0,.025l-.221.319a.338.338,0,0,0,.039.433l.472.472a.338.338,0,0,0,.433.039L5.972,9.8a.021.021,0,0,1,.025,0,2.828,2.828,0,0,0,.614.255.022.022,0,0,1,.017.018l.069.381a.34.34,0,0,0,.334.28H7.7a.34.34,0,0,0,.334-.28l.069-.381a.022.022,0,0,1,.017-.018,2.74,2.74,0,0,0,.614-.255.019.019,0,0,1,.025,0l.319.221a.338.338,0,0,0,.433-.039l.472-.472a.338.338,0,0,0,.039-.433L9.8,8.754a.021.021,0,0,1,0-.025,2.828,2.828,0,0,0,.255-.614A.022.022,0,0,1,10.07,8.1l.381-.069a.34.34,0,0,0,.28-.334V7.028a.34.34,0,0,0-.28-.334l-.381-.069a.022.022,0,0,1-.018-.017A2.74,2.74,0,0,0,9.8,5.994a.019.019,0,0,1,0-.025l.221-.319a.339.339,0,0,0-.039-.433l-.472-.472a.344.344,0,0,0-.434-.038l-.319.221a.021.021,0,0,1-.025,0,2.828,2.828,0,0,0-.614-.255A.022.022,0,0,1,8.1,4.656l-.069-.381A.34.34,0,0,0,7.7,4H7.03a.338.338,0,0,0-.334.28l-.068.382a.022.022,0,0,1-.017.018A2.74,2.74,0,0,0,6,4.93a.019.019,0,0,1-.025,0l-.319-.221a.338.338,0,0,0-.433.039l-.472.472a.338.338,0,0,0-.039.433l.221.319a.021.021,0,0,1,0,.025,2.828,2.828,0,0,0-.255.614.022.022,0,0,1-.018.017L4.277,6.7A.34.34,0,0,0,4,7.029V7.7a.341.341,0,0,0,.28.332Zm.037-1A.023.023,0,0,1,4.333,7l.381-.069a.336.336,0,0,0,.266-.243,2.382,2.382,0,0,1,.226-.542.34.34,0,0,0-.017-.361L4.969,5.47a.023.023,0,0,1,0-.03l.472-.472a.023.023,0,0,1,.03,0l.319.221a.34.34,0,0,0,.361.017A2.553,2.553,0,0,1,6.7,4.976a.339.339,0,0,0,.243-.266l.069-.377a.021.021,0,0,1,.024-.018H7.7a.023.023,0,0,1,.024.018l.069.381a.336.336,0,0,0,.243.266,2.382,2.382,0,0,1,.542.226.34.34,0,0,0,.361-.017l.319-.221a.023.023,0,0,1,.03,0l.472.472a.023.023,0,0,1,0,.03l-.221.319a.34.34,0,0,0-.017.361A2.553,2.553,0,0,1,9.75,6.7a.339.339,0,0,0,.266.243l.381.069a.021.021,0,0,1,.018.024V7.7a.023.023,0,0,1-.018.024l-.381.069a.336.336,0,0,0-.266.243,2.345,2.345,0,0,1-.226.542.34.34,0,0,0,.017.361l.221.319a.023.023,0,0,1,0,.03l-.472.472a.023.023,0,0,1-.03,0l-.319-.221a.34.34,0,0,0-.361-.017,2.553,2.553,0,0,1-.542.226.339.339,0,0,0-.243.266l-.069.381a.021.021,0,0,1-.024.018H7.032a.023.023,0,0,1-.024-.018l-.069-.381A.336.336,0,0,0,6.7,9.75a2.382,2.382,0,0,1-.542-.226.329.329,0,0,0-.167-.044.343.343,0,0,0-.194.061l-.319.221a.023.023,0,0,1-.03,0l-.472-.472a.023.023,0,0,1,0-.03l.221-.319a.34.34,0,0,0,.017-.361,2.553,2.553,0,0,1-.226-.542.339.339,0,0,0-.266-.243l-.38-.072A.021.021,0,0,1,4.317,7.7V7.028ZM7.363,9A1.637,1.637,0,1,0,5.727,7.361,1.638,1.638,0,0,0,7.363,9Zm0-2.956A1.321,1.321,0,1,1,6.042,7.363,1.322,1.322,0,0,1,7.363,6.042Z" transform="translate(-3.998 -3.995)" fill="#08152e"/>
      </g>
    </g>
  </g>
</svg>
