<svg xmlns="http://www.w3.org/2000/svg" xmlns:xlink="http://www.w3.org/1999/xlink" width="48" height="44" viewBox="0 0 48 44">
  <defs>
    <clipPath id="clip-Artboard_6">
      <rect width="48" height="44"/>
    </clipPath>
  </defs>
  <g id="Artboard_6" data-name="Artboard – 6" clip-path="url(#clip-Artboard_6)">
    <g id="Group_17577" data-name="Group 17577">
      <ellipse id="Ellipse_8" data-name="Ellipse 8" cx="17" cy="16.5" rx="17" ry="16.5" transform="translate(7 6)" fill="#eaeffe"/>
      <path id="Path_12897" data-name="Path 12897" d="M21.869,12.357H20.55a8.009,8.009,0,0,0-7.8-7.8V3.233a.2.2,0,0,0-.195-.195.2.2,0,0,0-.2.195V4.552a8.009,8.009,0,0,0-7.8,7.8H3.233a.2.2,0,0,0-.195.195.2.2,0,0,0,.195.2H4.552a8.009,8.009,0,0,0,7.8,7.8V21.87a.195.195,0,1,0,.389,0V20.551a8.009,8.009,0,0,0,7.8-7.8h1.322a.2.2,0,0,0,.195-.195.2.2,0,0,0-.195-.2Zm-9.123,7.8V19.58a.195.195,0,0,0-.389,0v.579a7.623,7.623,0,0,1-7.416-7.416H5.52a.195.195,0,0,0,0-.389H4.941a7.623,7.623,0,0,1,7.416-7.416v.579a.195.195,0,0,0,.389,0V4.939a7.623,7.623,0,0,1,7.416,7.416H19.58a.195.195,0,0,0,0,.389h.579a7.618,7.618,0,0,1-7.414,7.415ZM12.551,6.578a5.973,5.973,0,1,0,5.973,5.973,5.98,5.98,0,0,0-5.973-5.973Zm0,11.56a5.586,5.586,0,1,1,5.586-5.586A5.592,5.592,0,0,1,12.551,18.138Zm2.1-7.956L11.01,12.844l-.695-1.135a.923.923,0,0,0-1.576.961l1.219,1.987a.911.911,0,0,0,.6.423.953.953,0,0,0,.182.018.925.925,0,0,0,.547-.178l4.452-3.253a.921.921,0,1,0-1.09-1.485Zm.861,1.175-4.45,3.251a.54.54,0,0,1-.426.093.527.527,0,0,1-.348-.245L9.071,12.468a.534.534,0,0,1,.912-.555l.806,1.313a.192.192,0,0,0,.279.055l3.814-2.788a.535.535,0,0,1,.632.864Z" transform="translate(11.373 10.069)" fill="#08152e"/>
      <ellipse id="Ellipse_20" data-name="Ellipse 20" cx="17" cy="16.5" rx="17" ry="16.5" transform="translate(7 6)" fill="#eaeffe"/>
      <path id="Path_12945" data-name="Path 12945" d="M21.869,12.357H20.55a8.009,8.009,0,0,0-7.8-7.8V3.233a.2.2,0,0,0-.195-.195.2.2,0,0,0-.2.195V4.552a8.009,8.009,0,0,0-7.8,7.8H3.233a.2.2,0,0,0-.195.195.2.2,0,0,0,.195.2H4.552a8.009,8.009,0,0,0,7.8,7.8V21.87a.195.195,0,1,0,.389,0V20.551a8.009,8.009,0,0,0,7.8-7.8h1.322a.2.2,0,0,0,.195-.195.2.2,0,0,0-.195-.2Zm-9.123,7.8V19.58a.195.195,0,0,0-.389,0v.579a7.623,7.623,0,0,1-7.416-7.416H5.52a.195.195,0,0,0,0-.389H4.941a7.623,7.623,0,0,1,7.416-7.416v.579a.195.195,0,0,0,.389,0V4.939a7.623,7.623,0,0,1,7.416,7.416H19.58a.195.195,0,0,0,0,.389h.579a7.618,7.618,0,0,1-7.414,7.415ZM12.551,6.578a5.973,5.973,0,1,0,5.973,5.973,5.98,5.98,0,0,0-5.973-5.973Zm0,11.56a5.586,5.586,0,1,1,5.586-5.586A5.592,5.592,0,0,1,12.551,18.138Zm2.1-7.956L11.01,12.844l-.695-1.135a.923.923,0,0,0-1.576.961l1.219,1.987a.911.911,0,0,0,.6.423.953.953,0,0,0,.182.018.925.925,0,0,0,.547-.178l4.452-3.253a.921.921,0,1,0-1.09-1.485Zm.861,1.175-4.45,3.251a.54.54,0,0,1-.426.093.527.527,0,0,1-.348-.245L9.071,12.468a.534.534,0,0,1,.912-.555l.806,1.313a.192.192,0,0,0,.279.055l3.814-2.788a.535.535,0,0,1,.632.864Z" transform="translate(11.373 10.069)" fill="#08152e"/>
    </g>
  </g>
</svg>
