<svg xmlns="http://www.w3.org/2000/svg" xmlns:xlink="http://www.w3.org/1999/xlink" width="189" height="182" viewBox="0 0 189 182">
  <defs>
    <clipPath id="clip-path">
      <rect id="Rectangle_2494" data-name="Rectangle 2494" width="153.052" height="145.723" fill="none"/>
    </clipPath>
    <clipPath id="clip-path-2">
      <rect id="Rectangle_2462" data-name="Rectangle 2462" width="147.059" height="14.997" fill="none"/>
    </clipPath>
    <clipPath id="clip-path-3">
      <rect id="Rectangle_2463" data-name="Rectangle 2463" width="3.295" height="9.488" fill="none"/>
    </clipPath>
    <clipPath id="clip-path-4">
      <rect id="Rectangle_2464" data-name="Rectangle 2464" width="25.768" height="39.533" fill="none"/>
    </clipPath>
    <clipPath id="clip-path-5">
      <rect id="Rectangle_2465" data-name="Rectangle 2465" width="10.529" height="11.375" fill="none"/>
    </clipPath>
    <clipPath id="clip-path-6">
      <rect id="Rectangle_2466" data-name="Rectangle 2466" width="17.507" height="16.719" fill="none"/>
    </clipPath>
    <clipPath id="clip-path-7">
      <rect id="Rectangle_2467" data-name="Rectangle 2467" width="16.371" height="5.239" fill="none"/>
    </clipPath>
    <clipPath id="clip-path-8">
      <rect id="Rectangle_2468" data-name="Rectangle 2468" width="18.153" height="4.5" fill="none"/>
    </clipPath>
    <clipPath id="clip-path-9">
      <rect id="Rectangle_2469" data-name="Rectangle 2469" width="18.653" height="14.782" fill="none"/>
    </clipPath>
    <clipPath id="clip-path-10">
      <rect id="Rectangle_2470" data-name="Rectangle 2470" width="16.715" height="11.352" fill="none"/>
    </clipPath>
    <clipPath id="clip-path-11">
      <rect id="Rectangle_2471" data-name="Rectangle 2471" width="56.471" height="48.976" fill="none"/>
    </clipPath>
    <clipPath id="clip-path-12">
      <rect id="Rectangle_2472" data-name="Rectangle 2472" width="32.988" height="14.367" fill="none"/>
    </clipPath>
    <clipPath id="clip-path-13">
      <rect id="Rectangle_2473" data-name="Rectangle 2473" width="7.951" height="17.229" fill="none"/>
    </clipPath>
    <clipPath id="clip-path-15">
      <rect id="Rectangle_2475" data-name="Rectangle 2475" width="26.438" height="16.626" fill="none"/>
    </clipPath>
    <clipPath id="clip-path-16">
      <rect id="Rectangle_2476" data-name="Rectangle 2476" width="12.034" height="7.968" fill="none"/>
    </clipPath>
    <clipPath id="clip-path-17">
      <rect id="Rectangle_2477" data-name="Rectangle 2477" width="26.024" height="13.897" fill="none"/>
    </clipPath>
    <clipPath id="clip-path-18">
      <rect id="Rectangle_2478" data-name="Rectangle 2478" width="37.6" height="16.617" fill="none"/>
    </clipPath>
    <clipPath id="clip-path-19">
      <rect id="Rectangle_2479" data-name="Rectangle 2479" width="22.233" height="14.768" fill="none"/>
    </clipPath>
    <clipPath id="clip-path-20">
      <rect id="Rectangle_2480" data-name="Rectangle 2480" width="15.071" height="10.252" fill="none"/>
    </clipPath>
    <clipPath id="clip-path-21">
      <rect id="Rectangle_2481" data-name="Rectangle 2481" width="4.313" height="3.373" fill="none"/>
    </clipPath>
    <clipPath id="clip-path-22">
      <rect id="Rectangle_2482" data-name="Rectangle 2482" width="16.922" height="5.846" fill="none"/>
    </clipPath>
    <clipPath id="clip-path-23">
      <rect id="Rectangle_2483" data-name="Rectangle 2483" width="12.095" height="22.722" fill="none"/>
    </clipPath>
    <clipPath id="clip-path-24">
      <rect id="Rectangle_2484" data-name="Rectangle 2484" width="35.717" height="26.636" fill="none"/>
    </clipPath>
    <clipPath id="clip-path-25">
      <rect id="Rectangle_2485" data-name="Rectangle 2485" width="8.433" height="9.674" fill="none"/>
    </clipPath>
    <clipPath id="clip-path-26">
      <rect id="Rectangle_2486" data-name="Rectangle 2486" width="3.478" height="3.998" fill="none"/>
    </clipPath>
    <clipPath id="clip-path-27">
      <rect id="Rectangle_2487" data-name="Rectangle 2487" width="7.83" height="12.291" fill="none"/>
    </clipPath>
    <clipPath id="clip-path-28">
      <rect id="Rectangle_2488" data-name="Rectangle 2488" width="8.941" height="5.649" fill="none"/>
    </clipPath>
    <clipPath id="clip-path-29">
      <rect id="Rectangle_2489" data-name="Rectangle 2489" width="14.304" height="3.623" fill="none"/>
    </clipPath>
    <clipPath id="clip-path-30">
      <rect id="Rectangle_2490" data-name="Rectangle 2490" width="10.444" height="10.101" fill="none"/>
    </clipPath>
    <clipPath id="clip-path-31">
      <rect id="Rectangle_2491" data-name="Rectangle 2491" width="8.24" height="6.887" fill="none"/>
    </clipPath>
    <clipPath id="clip-path-32">
      <rect id="Rectangle_2492" data-name="Rectangle 2492" width="3.336" height="3.468" fill="none"/>
    </clipPath>
    <clipPath id="clip-path-33">
      <rect id="Rectangle_2493" data-name="Rectangle 2493" width="10.309" height="16.485" fill="none"/>
    </clipPath>
    <clipPath id="clip-Artboard_4">
      <rect width="189" height="182"/>
    </clipPath>
  </defs>
  <g id="Artboard_4" data-name="Artboard – 4" clip-path="url(#clip-Artboard_4)">
    <g id="Group_17575" data-name="Group 17575" transform="translate(16 18.277)">
      <g id="Group_5723" data-name="Group 5723" clip-path="url(#clip-path)">
        <g id="Group_5629" data-name="Group 5629" transform="translate(0 130.726)" opacity="0.2">
          <g id="Group_5628" data-name="Group 5628">
            <g id="Group_5627" data-name="Group 5627" clip-path="url(#clip-path-2)">
              <path id="Path_6661" data-name="Path 6661" d="M113.767,2488.843c0,4.142,32.92,7.5,73.529,7.5s73.529-3.357,73.529-7.5-32.92-7.5-73.529-7.5-73.529,3.357-73.529,7.5" transform="translate(-113.767 -2481.344)" fill="#371a45"/>
            </g>
          </g>
        </g>
        <path id="Path_6662" data-name="Path 6662" d="M2319.036,2004.12s-9.3-.562-11.4,3.244c-1.308,2.374-.062,10.035.3,13.294.292,2.606-1.257,2.432-1.257,2.432s-7.2-5.886-9.947-13.563l0,0a14.936,14.936,0,0,1-.161-10.512,14.067,14.067,0,0,1,7.421-7.517,28.475,28.475,0,0,1,9.786-2.539Z" transform="translate(-2286.929 -1884.171)" fill="#c1272c"/>
        <path id="Path_6663" data-name="Path 6663" d="M2317.99,2004.12s-9.305-.562-11.4,3.244c-1.309,2.374-.062,10.035.3,13.294.292,2.606-1.257,2.432-1.257,2.432s-7.2-5.886-9.947-13.563c.12.123,4.526,4.684,7.248,3.172,1.421-.789.566-4.041,1.667-6.927a12.994,12.994,0,0,0,.216-8.966l-1.872-5.311a28.476,28.476,0,0,1,9.786-2.539Z" transform="translate(-2285.882 -1884.171)" fill="#d82345"/>
        <path id="Path_6664" data-name="Path 6664" d="M2291.949,2009.091a1.935,1.935,0,0,0,1.342-.563,3.28,3.28,0,0,0,.665-2.787c-.054-.479-.126-1.052-.207-1.689-.413-3.259-1.182-9.324-.193-11.117,1.513-2.743,8.188-2.966,10.633-2.819a.823.823,0,0,0,.827-1.091l-5.258-15.165a.816.816,0,0,0-.817-.552c-.579.028-14.231.8-17.937,10.587-1.969,5.2-.783,11.195,3.431,17.327a40.42,40.42,0,0,0,6.927,7.68.823.823,0,0,0,.428.181,1.487,1.487,0,0,0,.16.009m10.86-20.657c-2.88,0-8.878.411-10.7,3.707-1.153,2.09-.657,6.925,0,12.118.08.629.151,1.194.2,1.666.114,1.013-.11,1.348-.181,1.427a.3.3,0,0,1-.027.027c-2-1.753-13.53-12.441-9.57-22.9,2.906-7.68,13.244-9.208,15.869-9.475l4.657,13.432h-.259" transform="translate(-2272.13 -1869.345)" fill="#371a45"/>
        <g id="Group_5632" data-name="Group 5632" transform="translate(11.169 111.248)" opacity="0.7">
          <g id="Group_5631" data-name="Group 5631">
            <g id="Group_5630" data-name="Group 5630" clip-path="url(#clip-path-3)">
              <path id="Path_6665" data-name="Path 6665" d="M2633.887,2111.621a11.109,11.109,0,0,0-3.195,9.488,27.3,27.3,0,0,0,3.195-9.488" transform="translate(-2630.592 -2111.621)" fill="#fff"/>
            </g>
          </g>
        </g>
        <path id="Path_6666" data-name="Path 6666" d="M164,1348.821l-.306,4.254-.157,2.167-2.7,37.363s2.558.039,5.992-.184c.672-.044,1.377-.1,2.1-.163,5.412-.487,11.983-1.657,14.478-4.439,3.729-4.16,4.352-24.473,1.022-32.527-1.525-3.692-9.277-5.3-14.782-5.985-.615-.078-1.2-.143-1.75-.2-2.307-.233-3.9-.289-3.9-.289" transform="translate(-42.027 -1277.76)" fill="#fff"/>
        <g id="Group_5635" data-name="Group 5635" transform="translate(118.811 75.314)" opacity="0.29">
          <g id="Group_5634" data-name="Group 5634">
            <g id="Group_5633" data-name="Group 5633" clip-path="url(#clip-path-4)">
              <path id="Path_6667" data-name="Path 6667" d="M163.686,1429.562l-.157,2.167-2.141,29.667-.555,7.7h.605a.253.253,0,0,0,.036,0h.14l.209,0h.163l.175,0,.234,0c.163,0,.336-.006.518-.01.161,0,.33-.006.507-.012.2-.006.417-.011.638-.019.817-.028,1.753-.071,2.767-.137l.6-.041.431-.032c.35-.027.71-.057,1.072-.09,5.414-.487,11.983-1.657,14.476-4.439,3.072-3.425,4.038-17.8,2.422-27.271.278,8.233-.839,17.032-3.155,19.614-1.145,1.276-5.547-3.4-5.413-6.034.345-6.8-.552-15.571-6.7-20.912-.16-.139-3.831.247-6.868-.141" transform="translate(-160.833 -1429.562)" fill="#371a45"/>
            </g>
          </g>
        </g>
        <path id="Path_6668" data-name="Path 6668" d="M146.637,1378.162c3.285,0,18.287-.267,22.586-5.062,3.927-4.381,4.649-24.978,1.17-33.392-1.115-2.7-5.064-4.69-11.735-5.921a71.81,71.81,0,0,0-9.433-1.056l-.792-.028-3.281,45.443.871.013c.069,0,.282,0,.614,0m3.323-43.752c5.353.283,17.189,1.757,18.913,5.927,3.165,7.655,2.609,27.779-.875,31.665-3.689,4.114-17.461,4.486-21.077,4.512Z" transform="translate(-27.225 -1262.491)" fill="#371a45"/>
        <path id="Path_6669" data-name="Path 6669" d="M169.63,1798.122l-7.357.359a1.443,1.443,0,0,0-1.344,1.146c-.49,2.358-1.341,7.861.916,9.745a5.68,5.68,0,0,0,6.842-.025c2.08-1.669,2.421-7.08,2.458-9.763a1.444,1.444,0,0,0-1.515-1.462" transform="translate(-26.542 -1703.388)" fill="#fff"/>
        <g id="Group_5638" data-name="Group 5638" transform="translate(133.816 95.743)" opacity="0.29">
          <g id="Group_5637" data-name="Group 5637">
            <g id="Group_5636" data-name="Group 5636" clip-path="url(#clip-path-5)">
              <path id="Path_6670" data-name="Path 6670" d="M165.863,1817.812c-.492,2.357-1.341,7.861.916,9.744a5.679,5.679,0,0,0,6.843-.025c1.279-1.028,1.9-3.47,2.2-5.821a6.166,6.166,0,0,1-1.568,2.723c-3.795,3.5-6.447-.813-6.447-.813s-.506,1.017-.89,1.065c-1.6.2-1.143-4.791-.844-7.369a1.4,1.4,0,0,0-.206.5" transform="translate(-165.29 -1817.315)" fill="#371a45"/>
            </g>
          </g>
        </g>
        <path id="Path_6671" data-name="Path 6671" d="M150.416,1796.53a6.406,6.406,0,0,0,3.992-1.342c2.191-1.759,2.713-6.622,2.766-10.393a2.267,2.267,0,0,0-2.378-2.3l-7.357.359a2.266,2.266,0,0,0-2.109,1.8c-.632,3.038-1.318,8.448,1.194,10.544a6.084,6.084,0,0,0,3.893,1.327m4.491-12.388a.622.622,0,0,1,.621.63c-.065,4.69-.869,8.1-2.15,9.132a4.842,4.842,0,0,1-5.8.036c-1.57-1.311-1.359-5.481-.638-8.946a.621.621,0,0,1,.578-.492l7.357-.359h.031" transform="translate(-11.746 -1688.588)" fill="#371a45"/>
        <path id="Path_6672" data-name="Path 6672" d="M255.758,1862.65c-2.413-1.489-2.721-4.723-2.6-7.319a6.193,6.193,0,0,1,.173-1.212.217.217,0,0,0-.411-.135,12.378,12.378,0,0,0-.52,3.85c-.03,2.271.733,4.831,2.74,6.137a.733.733,0,1,0,.618-1.322" transform="translate(-116.498 -1756.18)" fill="#371a45"/>
        <path id="Path_6673" data-name="Path 6673" d="M191.837,1440.853a42.051,42.051,0,0,1,10.581.676.824.824,0,0,0,.431-1.59,34.718,34.718,0,0,0-8.36-.178c-.909.066-1.81.143-2.721.246a.424.424,0,0,0,.069.846" transform="translate(-60.482 -1363.754)" fill="#371a45"/>
        <path id="Path_6674" data-name="Path 6674" d="M372.948,1917.331c.155,2.334.471,9.454.817,16.683.417,8.736.877,17.633,1.155,18.433a3.784,3.784,0,0,0,3.005,2.609h8.506s2.6,0,3.744-1.387c1.878-2.273-.032-4.746-.032-4.746s.144-10.306.237-19.739c.039-4.054.069-7.949.075-10.794Z" transform="translate(-257.598 -1816.319)" fill="#fff"/>
        <g id="Group_5641" data-name="Group 5641" transform="translate(115.35 101.012)" opacity="0.29">
          <g id="Group_5640" data-name="Group 5640">
            <g id="Group_5639" data-name="Group 5639" clip-path="url(#clip-path-6)">
              <path id="Path_6675" data-name="Path 6675" d="M383.319,1917.331c.155,2.334.471,9.454.817,16.683,6.521.417,11.813-2.957,16.616-4.83.039-4.054.069-7.949.075-10.794Z" transform="translate(-383.319 -1917.331)" fill="#371a45"/>
            </g>
          </g>
        </g>
        <g id="Group_5644" data-name="Group 5644" transform="translate(117.032 133.498)" opacity="0.29">
          <g id="Group_5643" data-name="Group 5643">
            <g id="Group_5642" data-name="Group 5642" clip-path="url(#clip-path-7)">
              <path id="Path_6676" data-name="Path 6676" d="M372.96,2533.962a19.439,19.439,0,0,0,.29,2.63,3.784,3.784,0,0,0,3.005,2.609h8.506s2.6,0,3.744-1.387a3.441,3.441,0,0,0,.688-3.22s0,0,0,.005c-1.239,1.5-4.056,1.5-4.056,1.5h-9.216a4.047,4.047,0,0,1-2.957-2.138" transform="translate(-372.96 -2533.962)" fill="#371a45"/>
            </g>
          </g>
        </g>
        <path id="Path_6677" data-name="Path 6677" d="M363.222,1941.065h8.506c.307,0,3.026-.051,4.377-1.685a4.609,4.609,0,0,0,.161-5.526c.034-2.484.293-21.495.308-30.275a.823.823,0,0,0-.821-.824h0a.823.823,0,0,0-.823.821c-.016,9.347-.309,30.313-.312,30.523a.823.823,0,0,0,.172.515,3.071,3.071,0,0,1,.048,3.717c-.73.883-2.493,1.084-3.111,1.087h-8.452a2.978,2.978,0,0,1-2.28-2.056c-.315-1.122-.962-14.962-1.39-24.121-.228-4.876-.425-9.088-.538-10.78a.823.823,0,0,0-1.642.109c.112,1.676.308,5.88.536,10.747.744,15.914,1.155,23.652,1.479,24.585a4.593,4.593,0,0,0,3.7,3.158c.026,0,.052,0,.079,0" transform="translate(-242.894 -1801.506)" fill="#371a45"/>
        <path id="Path_6678" data-name="Path 6678" d="M734.452,1985.6a3.027,3.027,0,0,0,.234,4.265c1.362,1.252,6.489,1,6.489,1h7.418a3.784,3.784,0,0,0,3.005-2.609c.647-1.862.264-9.547.5-18.322.049-1.864.125-3.776.245-5.691l-18.653-9.087c.29,3.422.607,6.771.929,9.91,1.1,10.773,2.215,19.036,2.215,19.036a5.408,5.408,0,0,0-2.377,1.5" transform="translate(-637.939 -1852.145)" fill="#fff"/>
        <g id="Group_5647" data-name="Group 5647" transform="translate(95.746 134.236)" opacity="0.29">
          <g id="Group_5646" data-name="Group 5646">
            <g id="Group_5645" data-name="Group 5645" clip-path="url(#clip-path-8)">
              <path id="Path_6679" data-name="Path 6679" d="M744.179,2551.452c1.362,1.251,6.489,1,6.489,1h7.418a3.784,3.784,0,0,0,3.006-2.609,6.224,6.224,0,0,0,.241-1.339,4.093,4.093,0,0,1-1.913.829h-8.387s-5.8.288-7.336-1.127a3.062,3.062,0,0,1-.23-.233,2.941,2.941,0,0,0,.714,3.483" transform="translate(-743.179 -2547.969)" fill="#371a45"/>
            </g>
          </g>
        </g>
        <g id="Group_5650" data-name="Group 5650" transform="translate(95.746 103.004)" opacity="0.29">
          <g id="Group_5649" data-name="Group 5649">
            <g id="Group_5648" data-name="Group 5648" clip-path="url(#clip-path-9)">
              <path id="Path_6680" data-name="Path 6680" d="M733.684,1955.15c.29,3.422.607,6.772.929,9.91a30.408,30.408,0,0,1,4.215,1.841,28.781,28.781,0,0,0,13.265,3.028c.049-1.864.125-3.775.245-5.691Z" transform="translate(-733.684 -1955.15)" fill="#371a45"/>
            </g>
          </g>
        </g>
        <path id="Path_6681" data-name="Path 6681" d="M725.193,1976.927c.546,0,.977-.016,1.205-.028h7.4a.773.773,0,0,0,.079,0,4.593,4.593,0,0,0,3.7-3.158c.452-1.3.452-4.551.453-9.473,0-4.234,0-9.5.331-14.76a.823.823,0,1,0-1.642-.1c-.333,5.308-.334,10.606-.335,14.862,0,4.237,0,7.9-.362,8.932a2.98,2.98,0,0,1-2.282,2.056h-7.405c-1.988.1-5.127-.079-5.89-.781a2.211,2.211,0,0,1-.151-3.143,4.6,4.6,0,0,1,1.969-1.229.825.825,0,0,0,.583-.9c-.019-.138-1.871-13.931-3.14-28.9a.823.823,0,0,0-1.64.139c1.115,13.171,2.682,25.431,3.063,28.338a5.687,5.687,0,0,0-2.117,1.524,3.863,3.863,0,0,0,.319,5.387c1.164,1.071,4.1,1.242,5.86,1.242" transform="translate(-623.143 -1837.362)" fill="#371a45"/>
        <path id="Path_6682" data-name="Path 6682" d="M734.305,2311.038a39.268,39.268,0,0,0,7.337-.69.823.823,0,0,0-.336-1.611c-.094.02-9.485,1.924-15.921-.918a.823.823,0,1,0-.665,1.505,24.242,24.242,0,0,0,9.585,1.714" transform="translate(-627.399 -2186.167)" fill="#371a45"/>
        <path id="Path_6683" data-name="Path 6683" d="M379.03,2292.985a28.654,28.654,0,0,0,9.209-1.337.823.823,0,0,0-.569-1.544,31.8,31.8,0,0,1-15.9.482.823.823,0,1,0-.334,1.611,37.4,37.4,0,0,0,7.593.789" transform="translate(-255.258 -2169.404)" fill="#371a45"/>
        <path id="Path_6684" data-name="Path 6684" d="M385.191,2484.808c-2.67-1.954-8.791-.852-11.979-.463a.412.412,0,0,0,.089.818c.964-.07,1.927-.13,2.888-.169a24.965,24.965,0,0,1,6.329.346,4.05,4.05,0,0,1,1.647.755.823.823,0,1,0,1.026-1.287" transform="translate(-252.118 -2352.833)" fill="#371a45"/>
        <path id="Path_6685" data-name="Path 6685" d="M912.851,2487.871a16.984,16.984,0,0,1,5.513-.6.413.413,0,0,0,.086-.818,18.087,18.087,0,0,0-5.985-.185.825.825,0,1,0,.386,1.6" transform="translate(-813.768 -2355.121)" fill="#371a45"/>
        <path id="Path_6686" data-name="Path 6686" d="M1509.446,2004.12s9.3-.562,11.4,3.244c1.308,2.374.062,10.035-.3,13.294-.292,2.606,1.257,2.432,1.257,2.432s7.2-5.886,9.947-13.563l0,0a14.935,14.935,0,0,0,.16-10.512,14.065,14.065,0,0,0-7.42-7.517,28.475,28.475,0,0,0-9.786-2.539Z" transform="translate(-1459.265 -1884.171)" fill="#c1272c"/>
        <path id="Path_6687" data-name="Path 6687" d="M1529.294,2004.12s9.3-.562,11.4,3.244c1.308,2.374.062,10.035-.3,13.294-.292,2.606,1.257,2.432,1.257,2.432s7.2-5.886,9.947-13.563c-.119.123-4.526,4.684-7.248,3.172-1.421-.789-.565-4.041-1.666-6.927a12.993,12.993,0,0,1-.216-8.966l1.872-5.311a28.475,28.475,0,0,0-9.786-2.539Z" transform="translate(-1479.113 -1884.171)" fill="#d82345"/>
        <path id="Path_6688" data-name="Path 6688" d="M1507.137,2009.09a1.486,1.486,0,0,0,.16-.008.824.824,0,0,0,.428-.181,40.419,40.419,0,0,0,6.927-7.68c4.214-6.132,5.4-12.124,3.432-17.327-3.705-9.789-17.357-10.559-17.937-10.587a.814.814,0,0,0-.817.552l-5.258,15.165a.823.823,0,0,0,.827,1.091c2.445-.146,9.12.076,10.633,2.819.989,1.793.22,7.858-.193,11.116-.081.637-.153,1.21-.207,1.689a3.28,3.28,0,0,0,.665,2.787,1.935,1.935,0,0,0,1.342.563M1500.675,1975c2.624.266,12.962,1.8,15.869,9.475,3.964,10.473-7.566,21.15-9.57,22.9a.286.286,0,0,1-.027-.027c-.071-.078-.295-.414-.181-1.427.053-.472.125-1.037.2-1.666.659-5.194,1.155-10.029,0-12.119-1.874-3.4-8.189-3.731-10.954-3.705Z" transform="translate(-1444.667 -1869.345)" fill="#371a45"/>
        <path id="Path_6689" data-name="Path 6689" d="M1835.116,2198.078,1834,2203.3a6.567,6.567,0,0,1-4.585,4.932,39.419,39.419,0,0,1-21.182.241h0a6.566,6.566,0,0,1-4.7-4.826l-1.234-5.195Z" transform="translate(-1777.015 -2082.275)" fill="#fff"/>
        <g id="Group_5653" data-name="Group 5653" transform="translate(25.288 116.177)" opacity="0.3">
          <g id="Group_5652" data-name="Group 5652">
            <g id="Group_5651" data-name="Group 5651" clip-path="url(#clip-path-10)">
              <path id="Path_6690" data-name="Path 6690" d="M2123.354,2216.534q.606.009,1.212,0a39.425,39.425,0,0,1-8.316-1.288,6.564,6.564,0,0,1-4.7-4.828l-1.233-5.194-1.209.016-1.259-.053,1.235,5.194a6.565,6.565,0,0,0,4.7,4.827,39.423,39.423,0,0,0,9.573,1.327" transform="translate(-2107.851 -2205.186)" fill="#fff"/>
            </g>
          </g>
        </g>
        <path id="Path_6691" data-name="Path 6691" d="M1804.281,2209.821a39.465,39.465,0,0,0,11.608-1.569,6.569,6.569,0,0,0,4.586-4.931l1.115-5.222-17.172.194a4.957,4.957,0,0,1,2.517,4.827c-.07,4.706-4.611,6.616-4.611,6.616s-.011,0-.016,0c.656.045,1.313.071,1.972.081" transform="translate(-1763.49 -2082.295)" fill="#fff"/>
        <path id="Path_6692" data-name="Path 6692" d="M1553.861,100.168c.154.784.319,1.553.488,2.306a83.424,83.424,0,0,0,4.088,13.123c.531,1.306,1.066,2.518,1.6,3.641a48.563,48.563,0,0,0,6.207,10.28,47.416,47.416,0,0,0,6.155,1.74l.247.051a47.2,47.2,0,0,0,25.576-1.86c.278-.1.555-.2.831-.309,0,0,8.268-9.963,11.712-29.641a106.228,106.228,0,0,0,1.1-26.9c-2.851-35.484-20.975-52.42-27.878-57.643a4.313,4.313,0,0,0-5.281.056c-4.237,3.36-12.76,11.4-19.051,25.643a88.981,88.981,0,0,0-6.5,22.862c-.377,2.5-.673,5.114-.872,7.834-.052.638-.093,1.284-.132,1.932a106.432,106.432,0,0,0,1.718,26.884" transform="translate(-1540.951 -13.34)" fill="#fff"/>
        <g id="Group_5656" data-name="Group 5656" transform="translate(13.116 69.958)" opacity="0.29">
          <g id="Group_5655" data-name="Group 5655">
            <g id="Group_5654" data-name="Group 5654" clip-path="url(#clip-path-11)">
              <path id="Path_6693" data-name="Path 6693" d="M1584.277,1344.765c.154.784.319,1.553.488,2.306a83.448,83.448,0,0,0,4.088,13.123q.8,1.959,1.6,3.641a48.562,48.562,0,0,0,6.207,10.28,47.4,47.4,0,0,0,6.155,1.74l.041.051a47.2,47.2,0,0,0,25.576-1.86,49.958,49.958,0,0,0,6.149-10.212q.8-1.685,1.6-3.641a83.435,83.435,0,0,0,4.088-13.123c.169-.753.333-1.522.487-2.306-7.124,16.063-20.048,15.682-18.233,7.618.586-2.6,6.408-6.622,6.408-21.737l-16.411-2.751-16.411,2.751c0,15.115,5.822,19.134,6.408,21.737,1.815,8.064-11.109,8.445-18.233-7.618" transform="translate(-1584.277 -1327.895)" fill="#371a45"/>
            </g>
          </g>
        </g>
        <path id="Path_6694" data-name="Path 6694" d="M1680.22,45.035a113.966,113.966,0,0,1,47.607-.543c-6.742-16.83-16.762-25.934-21.5-29.519a4.32,4.32,0,0,0-5.287.06c-.117.093-.239.189-.362.29-4.783,3.878-14.265,13.16-20.459,29.713" transform="translate(-1663.294 -13.356)" fill="#111c4e"/>
        <path id="Path_6695" data-name="Path 6695" d="M2214.559,64.4c-3.16-10.319-.673-20.974,1.411-27.079-4.783,3.878-14.265,13.16-20.459,29.713a113.736,113.736,0,0,1,19.048-2.633" transform="translate(-2178.585 -35.356)" fill="#111c4e"/>
        <path id="Path_6696" data-name="Path 6696" d="M1665.424,32.5a.828.828,0,0,0,.181-.02,112.388,112.388,0,0,1,47.264-.539.823.823,0,0,0,.927-1.113c-6.631-16.555-16.346-25.715-21.548-29.7a5.436,5.436,0,0,0-6.727.077c-5.11,4.1-14.616,13.484-20.867,30.186a.823.823,0,0,0,.771,1.111m25.059-4.456a114.327,114.327,0,0,0-23.742,2.5c6.107-15.447,14.978-24.18,19.811-28.061a3.794,3.794,0,0,1,4.7-.053c4.919,3.77,13.985,12.3,20.443,27.6a114.5,114.5,0,0,0-21.207-1.99" transform="translate(-1648.499 0.004)" fill="#371a45"/>
        <path id="Path_6697" data-name="Path 6697" d="M1567.434,624.045c.185,0,.37,0,.556,0a47.9,47.9,0,0,0,16.659-3.183.823.823,0,0,0,.339-.243c.165-.2,4.084-4.983,7.67-14.454,3.3-8.7,6.894-23.171,5.327-42.678a97.121,97.121,0,0,0-6.43-28.368.823.823,0,0,0-.637-.507,114.014,114.014,0,0,0-47.919.554.823.823,0,0,0-.589.514,97.107,97.107,0,0,0-5.781,28.507c-1.122,19.538,2.805,33.92,6.3,42.546,3.8,9.387,7.826,14.08,8,14.275a.825.825,0,0,0,.344.235,47.866,47.866,0,0,0,16.168,2.805m16.416-4.643a46.4,46.4,0,0,1-31.819.363,55.671,55.671,0,0,1-7.613-13.735c-3.412-8.456-7.248-22.564-6.146-41.752a95.719,95.719,0,0,1,5.524-27.608,112.372,112.372,0,0,1,46.4-.529,95.715,95.715,0,0,1,6.152,27.474c1.539,19.157-1.975,33.349-5.194,41.881a55.671,55.671,0,0,1-7.3,13.906" transform="translate(-1526.255 -504.286)" fill="#371a45"/>
        <path id="Path_6698" data-name="Path 6698" d="M1803.591,2195.829a40.229,40.229,0,0,0,11.254-1.605,7.38,7.38,0,0,0,5.16-5.551l1.116-5.221a.823.823,0,1,0-1.61-.344l-1.115,5.221a5.736,5.736,0,0,1-4.01,4.314,38.6,38.6,0,0,1-20.739.236,5.737,5.737,0,0,1-4.108-4.222l-1.234-5.195a.823.823,0,0,0-1.6.381l1.234,5.195a7.38,7.38,0,0,0,5.285,5.431,40.245,40.245,0,0,0,10.37,1.359" transform="translate(-1762.214 -2067.477)" fill="#371a45"/>
        <path id="Path_6699" data-name="Path 6699" d="M1813.319,1017.934a16.656,16.656,0,0,0,31.791.595l0,0a16.652,16.652,0,1,0-31.793-.592" transform="translate(-1788.403 -944.117)" fill="#c6c6c6"/>
        <g id="Group_5659" data-name="Group 5659" transform="translate(24.41 52.506)" opacity="0.7">
          <g id="Group_5658" data-name="Group 5658">
            <g id="Group_5657" data-name="Group 5657" clip-path="url(#clip-path-12)">
              <path id="Path_6700" data-name="Path 6700" d="M1815.643,1010.991a17.187,17.187,0,0,1,32.988,0,16.651,16.651,0,0,0-32.988,0" transform="translate(-1815.643 -996.624)" fill="#fff"/>
            </g>
          </g>
        </g>
        <path id="Path_6701" data-name="Path 6701" d="M1828.763,1335.046a16.656,16.656,0,0,0,31.79.595s-4.542,3.141-4.065-4.271h-22.994c.477,7.412-4.067,4.271-4.067,4.271Z" transform="translate(-1803.847 -1261.229)" fill="#898989"/>
        <path id="Path_6702" data-name="Path 6702" d="M1814.537,1015.941a17.5,17.5,0,1,0-1.057-.031q.53.032,1.057.031m-.033-33.3q.471,0,.947.028a15.819,15.819,0,1,1-.947-.028" transform="translate(-1773.609 -929.31)" fill="#371a45"/>
        <path id="Path_6703" data-name="Path 6703" d="M1915.714,1112.25a11.594,11.594,0,1,1,12.26-10.888,11.594,11.594,0,0,1-12.26,10.888" transform="translate(-1875.294 -1031.705)" fill="#fff"/>
        <path id="Path_6704" data-name="Path 6704" d="M1955.773,1149.45a9.428,9.428,0,1,0-.568-.017c.19.011.379.017.568.017m-.026-17.166q.235,0,.472.014a7.76,7.76,0,1,1-.917,15.492h0a7.76,7.76,0,0,1,.445-15.506" transform="translate(-1914.655 -1071.073)" fill="#371a45"/>
        <path id="Path_6705" data-name="Path 6705" d="M1901.613,1098.3a12.425,12.425,0,1,0-.743-.022c.249.015.5.022.743.022m-.022-23.189q.325,0,.652.019a10.748,10.748,0,1,1-.652-.019" transform="translate(-1860.499 -1016.909)" fill="#371a45"/>
        <path id="Path_6706" data-name="Path 6706" d="M1904.812,1099.98a11.594,11.594,0,1,1,10.887,12.259,11.595,11.595,0,0,1-10.887-12.259m11.066,9.253a8.582,8.582,0,1,0-8.06-9.076,8.582,8.582,0,0,0,8.06,9.076" transform="translate(-1875.279 -1031.694)" fill="#898989"/>
        <path id="Path_6707" data-name="Path 6707" d="M1901.593,1098.282a12.427,12.427,0,1,0-.742-.022q.373.022.742.022m-.021-23.189q.324,0,.651.019a10.771,10.771,0,0,1-.631,21.524c-.214,0-.428-.006-.644-.019a10.769,10.769,0,0,1-10.114-11.389h0a10.773,10.773,0,0,1,10.738-10.135m.026,20.178a9.432,9.432,0,1,0-.568-.017q.285.017.568.017m-.026-17.166q.235,0,.472.014a7.76,7.76,0,1,1-.917,15.492h0a7.76,7.76,0,0,1,.445-15.506" transform="translate(-1860.479 -1016.894)" fill="#371a45"/>
        <path id="Path_6708" data-name="Path 6708" d="M1955.773,1149.45a9.428,9.428,0,1,0-.568-.017c.19.011.379.017.568.017m-.026-17.166q.235,0,.472.014a7.76,7.76,0,1,1-.917,15.492h0a7.76,7.76,0,0,1,.445-15.506" transform="translate(-1914.655 -1071.073)" fill="#371a45"/>
        <path id="Path_6709" data-name="Path 6709" d="M2024.438,2012.777c0,9.326,5.253,16.886,5.253,16.886s5.253-7.56,5.253-16.886-5.253-16.885-5.253-16.885-5.253,7.56-5.253,16.885" transform="translate(-1988.547 -1890.741)" fill="#22a7f0"/>
        <path id="Path_6710" data-name="Path 6710" d="M2024.438,2012.777c0,9.326,5.253,16.886,5.253,16.886s5.253-7.56,5.253-16.886-5.253-16.885-5.253-16.885-5.253,7.56-5.253,16.885" transform="translate(-1988.547 -1890.741)" fill="#c1272c"/>
        <g id="Group_5662" data-name="Group 5662" transform="translate(37.169 105.151)" opacity="0.7">
          <g id="Group_5661" data-name="Group 5661">
            <g id="Group_5660" data-name="Group 5660" clip-path="url(#clip-path-13)">
              <path id="Path_6711" data-name="Path 6711" d="M2048.688,2004.543l.457.286s1.8-4.328,3-5.516c.164,6.229.516,13.823.516,13.823s.352-7.591.518-13.821c1.2,1.189,3,5.514,3,5.514l.457-.288a35.177,35.177,0,0,0-3.4-7.729c-.352-.586-.572-.905-.572-.905s-.22.317-.57.9a35.223,35.223,0,0,0-3.4,7.735" transform="translate(-2048.688 -1995.907)" fill="#fff"/>
            </g>
          </g>
        </g>
        <path id="Path_6712" data-name="Path 6712" d="M2024.438,2234.816c0,9.328,5.252,16.886,5.252,16.886s5.254-7.558,5.254-16.886a26.7,26.7,0,0,0-.4-4.536c-1.226,7.122-2.7,14.466-4.857,14.466s-3.631-7.344-4.855-14.466a26.686,26.686,0,0,0-.4,4.536" transform="translate(-1988.546 -2112.781)" fill="#d82345"/>
        <path id="Path_6713" data-name="Path 6713" d="M2014.893,2015.687a.823.823,0,0,0,.676-.353,30.586,30.586,0,0,0,0-34.71.823.823,0,0,0-1.352,0,30.586,30.586,0,0,0,0,34.71.823.823,0,0,0,.676.353m0-33.036a28.726,28.726,0,0,1,0,30.655,28.729,28.729,0,0,1,0-30.655" transform="translate(-1973.749 -1875.942)" fill="#371a45"/>
        <g id="Group_5665" data-name="Group 5665" transform="translate(67.825 111.248)" opacity="0.7">
          <g id="Group_5664" data-name="Group 5664">
            <g id="Group_5663" data-name="Group 5663" clip-path="url(#clip-path-3)">
              <path id="Path_6714" data-name="Path 6714" d="M1555.178,2111.621a11.109,11.109,0,0,1,3.195,9.488,27.3,27.3,0,0,1-3.195-9.488" transform="translate(-1555.178 -2111.621)" fill="#fff"/>
            </g>
          </g>
        </g>
        <path id="Path_6715" data-name="Path 6715" d="M1044.652,1595.917s-8.134,4.423-11.627,1c-5.388-5.287,1.037-15.907,1.037-15.907Z" transform="translate(-945.909 -1497.713)" fill="#d8d8d8"/>
        <path id="Path_6716" data-name="Path 6716" d="M1021.972,1584.241c3.827,0,8.037-2.255,8.286-2.391a.823.823,0,0,0,.278-1.2l-10.589-14.911a.834.834,0,0,0-.7-.346.823.823,0,0,0-.674.4c-.276.456-6.7,11.242-.91,16.92a5.947,5.947,0,0,0,4.31,1.531m6.667-3.418c-2.571,1.208-7.6,2.9-9.825.713-3.888-3.815-.846-11,.555-13.766Z" transform="translate(-931.122 -1482.922)" fill="#371a45"/>
        <path id="Path_6717" data-name="Path 6717" d="M17.671,1071.223a57.536,57.536,0,0,0,4.787,5.933c1.366,1.508,2.4,2.549,2.4,2.549s17.966,1.257,22.909-11.977a20.565,20.565,0,0,0,1.129-4.616c1.08-8.389-2.8-15.9-2.8-15.9l-9.7,4.573-2.8,9.307a50.743,50.743,0,0,1-5.69,2.164,76.379,76.379,0,0,1-10.86,2.652c-2.043.344-1.152,2.668.634,5.316" transform="translate(103.131 -992.04)" fill="#fff"/>
        <g id="Group_5668" data-name="Group 5668" transform="translate(125.589 71.071)" opacity="0.29">
          <g id="Group_5667" data-name="Group 5667">
            <g id="Group_5666" data-name="Group 5666" clip-path="url(#clip-path-15)">
              <path id="Path_6718" data-name="Path 6718" d="M19.465,1363.065c1.366,1.508,2.4,2.549,2.4,2.549s17.966,1.257,22.909-11.978a20.561,20.561,0,0,0,1.129-4.616c-.946,2.619-5.764,13.23-21.71,13.676a40.52,40.52,0,0,0-4.728.368" transform="translate(-19.465 -1349.02)" fill="#371a45"/>
            </g>
          </g>
        </g>
        <g id="Group_5671" data-name="Group 5671" transform="translate(118.995 71.215)" opacity="0.29">
          <g id="Group_5670" data-name="Group 5670">
            <g id="Group_5669" data-name="Group 5669" clip-path="url(#clip-path-16)">
              <path id="Path_6719" data-name="Path 6719" d="M419.845,1359.722a20.385,20.385,0,0,0,10.227-7.968,76.36,76.36,0,0,1-10.86,2.652c-2.043.344-1.152,2.668.634,5.316" transform="translate(-418.038 -1351.754)" fill="#371a45"/>
            </g>
          </g>
        </g>
        <path id="Path_6720" data-name="Path 6720" d="M498.713,1276.274a22.847,22.847,0,0,0,12.043,3.351,22.521,22.521,0,0,0,13.981-4.715l-5.785-9.182L498.8,1276.119c-.029.052-.06.1-.088.154" transform="translate(-397.959 -1199.045)" fill="#d8d8d8"/>
        <path id="Path_6721" data-name="Path 6721" d="M11.093,1065.752a34.6,34.6,0,0,0,8.537-1.087c6.955-1.824,11.752-5.787,13.871-11.459,3.832-10.256-1.486-20.743-1.715-21.185a.823.823,0,0,0-1.462.756c.065.128,5.2,10.3,1.635,19.853-4.326,11.577-19.446,11.536-21.78,11.458-4.515-4.586-9-10.378-8.5-11.924.018-.056.061-.188.46-.256a68.545,68.545,0,0,0,16.77-4.885.823.823,0,0,0,.433-.505l2.8-9.306a.823.823,0,0,0-1.576-.474l-2.692,8.948a70.25,70.25,0,0,1-16.008,4.6,2.044,2.044,0,0,0-1.753,1.375c-.319.995-.227,2.947,4.246,8.4,2.351,2.865,4.855,5.391,4.88,5.416a.823.823,0,0,0,.526.241c.059,0,.539.036,1.33.036" transform="translate(118.167 -977.229)" fill="#371a45"/>
        <path id="Path_6722" data-name="Path 6722" d="M391.569,1299.436c.21,3.831,1.247,7.3,3.508,9.813,7.873,8.747,28.958,7.038,33.187-4a19.6,19.6,0,0,0,.9-7.048,72.83,72.83,0,0,0-3.942-20.6l-7.484-11.879-20.151,10.391c-3.23,5.6-6.458,15.252-6.017,23.317" transform="translate(-296.743 -1199.045)" fill="#fff"/>
        <g id="Group_5674" data-name="Group 5674" transform="translate(100.754 66.683)" opacity="0.29">
          <g id="Group_5673" data-name="Group 5673">
            <g id="Group_5672" data-name="Group 5672" clip-path="url(#clip-path-17)">
              <path id="Path_6723" data-name="Path 6723" d="M498.713,1276.274a22.847,22.847,0,0,0,12.043,3.351,22.521,22.521,0,0,0,13.981-4.715l-5.785-9.182L498.8,1276.119c-.029.052-.06.1-.088.154" transform="translate(-498.713 -1265.728)" fill="#371a45"/>
            </g>
          </g>
        </g>
        <g id="Group_5677" data-name="Group 5677" transform="translate(94.826 99.161)" opacity="0.29">
          <g id="Group_5676" data-name="Group 5676">
            <g id="Group_5675" data-name="Group 5675" clip-path="url(#clip-path-18)">
              <path id="Path_6724" data-name="Path 6724" d="M391.528,1883.427c.21,3.831,1.247,7.3,3.508,9.813,7.873,8.747,28.958,7.038,33.187-4a19.6,19.6,0,0,0,.9-7.048c-7.5,1.354-25.742,4.092-37.594,1.23" transform="translate(-391.528 -1882.196)" fill="#371a45"/>
            </g>
          </g>
        </g>
        <path id="Path_6725" data-name="Path 6725" d="M376.7,1624.613c3.642-5.888,1.306-16.605-.656-22.888a.413.413,0,0,0-.8.2,113.769,113.769,0,0,1,1.465,11.293,38.319,38.319,0,0,1-.034,8.37,11.617,11.617,0,0,1-.709,2.656.414.414,0,0,0,.734.371" transform="translate(-245.323 -1517.075)" fill="#371a45"/>
        <path id="Path_6726" data-name="Path 6726" d="M646.8,2177.623a16.778,16.778,0,0,0,11.569.194.418.418,0,0,0-.157-.808,84.023,84.023,0,0,1-8.4-.027c-.932-.052-1.864-.12-2.822-.16a.419.419,0,0,0-.187.8" transform="translate(-539.651 -2062.139)" fill="#371a45"/>
        <path id="Path_6727" data-name="Path 6727" d="M981.672,1447.935c-4.617,7.93-8.412,21.281-4.765,30.106a10.445,10.445,0,0,0,2.662,3.711.415.415,0,0,0,.612-.551c-4.79-7.312-2.968-16.745-.465-24.574a48.691,48.691,0,0,1,3.385-7.876.823.823,0,0,0-1.429-.817" transform="translate(-881.542 -1371.272)" fill="#371a45"/>
        <path id="Path_6728" data-name="Path 6728" d="M1013.9,1852a2.732,2.732,0,1,0,2.732-2.732A2.733,2.733,0,0,0,1013.9,1852" transform="translate(-919.725 -1751.84)" fill="#fff"/>
        <path id="Path_6729" data-name="Path 6729" d="M1001.834,1840.756a3.555,3.555,0,1,0-3.556-3.555,3.559,3.559,0,0,0,3.556,3.555m0-5.465a1.91,1.91,0,1,1-1.91,1.91,1.912,1.912,0,0,1,1.91-1.91" transform="translate(-904.929 -1737.042)" fill="#371a45"/>
        <path id="Path_6730" data-name="Path 6730" d="M656.373,1786.57l15.422.317a3.331,3.331,0,0,0,3.389-3.253l.168-8.207a3.333,3.333,0,0,0-2.591-3.308,3.259,3.259,0,0,0-.662-.081l-15.42-.316a3.328,3.328,0,0,0-3.389,3.253l-.135,6.5-.036,1.707a3.332,3.332,0,0,0,3.253,3.389" transform="translate(-556.709 -1678.38)" fill="#fff"/>
        <path id="Path_6731" data-name="Path 6731" d="M656.373,1786.57l15.422.317a3.331,3.331,0,0,0,3.389-3.253l.168-8.207a3.333,3.333,0,0,0-2.591-3.308,3.259,3.259,0,0,0-.662-.081l-15.42-.316a3.328,3.328,0,0,0-3.389,3.253l-.135,6.5-.036,1.707a3.332,3.332,0,0,0,3.253,3.389" transform="translate(-556.709 -1678.38)" fill="#fff"/>
        <path id="Path_6732" data-name="Path 6732" d="M656.373,1786.57l15.422.317a3.331,3.331,0,0,0,3.389-3.253l.168-8.207a3.333,3.333,0,0,0-2.591-3.308,3.259,3.259,0,0,0-.662-.081l-15.42-.316a3.328,3.328,0,0,0-3.389,3.253l-.135,6.5-.036,1.707a3.332,3.332,0,0,0,3.253,3.389" transform="translate(-556.709 -1678.38)" fill="#fff"/>
        <g id="Group_5680" data-name="Group 5680" transform="translate(96.388 93.74)" opacity="0.29">
          <g id="Group_5679" data-name="Group 5679">
            <g id="Group_5678" data-name="Group 5678" clip-path="url(#clip-path-19)">
              <path id="Path_6733" data-name="Path 6733" d="M656.805,1793.746l15.422.316a3.331,3.331,0,0,0,3.389-3.253l.168-8.207a3.333,3.333,0,0,0-2.591-3.308c-.888.564-1.451.925-1.451.925-.886,6.572-2.83,9.819-11.013,9.784-3.532-.016-5.75-.6-7.142-1.353l-.036,1.707a3.332,3.332,0,0,0,3.253,3.389" transform="translate(-653.552 -1779.295)" fill="#371a45"/>
            </g>
          </g>
        </g>
        <path id="Path_6734" data-name="Path 6734" d="M656.639,1773.14a4.85,4.85,0,0,0,4.842-4.745l.14-6.808a4.85,4.85,0,0,0-4.744-4.943l-14.021-.288a4.856,4.856,0,0,0-4.943,4.744l-.14,6.808a4.85,4.85,0,0,0,4.744,4.943l14.021.288h.1m-.084-.824h0ZM642.756,1758h.067l14.021.288a3.211,3.211,0,0,1,3.132,3.264l-.14,6.808a3.2,3.2,0,0,1-3.264,3.133l-14.021-.288a3.2,3.2,0,0,1-3.133-3.264l.14-6.808a3.211,3.211,0,0,1,3.2-3.133" transform="translate(-542.17 -1663.823)" fill="#371a45"/>
        <path id="Path_6735" data-name="Path 6735" d="M653.127,1791.133l.03.059,9.938.2a3.328,3.328,0,0,0,3.061-1.891,3.244,3.244,0,0,0,.326-1.363l.076-3.646.025-1.2.042-2.112.026-1.245a3.331,3.331,0,0,0-3.252-3.389l-3.332-.067a3.331,3.331,0,0,1,2.639,3.314l-.049,2.436-.042,2-.076,3.777a3.336,3.336,0,0,1-3.389,3.252Z" transform="translate(-548.007 -1682.888)" fill="#fff"/>
        <g id="Group_5683" data-name="Group 5683" transform="translate(103.546 98.256)" opacity="0.29">
          <g id="Group_5682" data-name="Group 5682">
            <g id="Group_5681" data-name="Group 5681" clip-path="url(#clip-path-20)">
              <path id="Path_6736" data-name="Path 6736" d="M653.636,1874.986l.03.059,11.512.237a3.328,3.328,0,0,0,3.06-1.891,3.243,3.243,0,0,0,.326-1.363l.076-3.646.025-1.2.042-2.112a1.807,1.807,0,0,0-2.057.946c-.7,1.355-1.4.884-1.911.1l-.042,2-.076,3.777a3.336,3.336,0,0,1-3.389,3.252Z" transform="translate(-653.636 -1865.031)" fill="#371a45"/>
            </g>
          </g>
        </g>
        <path id="Path_6737" data-name="Path 6737" d="M652.372,1777.391a4.153,4.153,0,0,0,4.139-4.059l.169-8.208a4.155,4.155,0,0,0-4.058-4.229l-3.332-.068-.186,1.628a2.5,2.5,0,0,1,1.985,2.5l-.169,8.208a2.507,2.507,0,0,1-2.547,2.447l-10.02-.147-.826-.017-.015.827c-.009.6.405.768.812.818v.016l13.96.287h.088m-.384-14.864.6.012a2.509,2.509,0,0,1,2.447,2.55l-.169,8.209a2.507,2.507,0,0,1-2.547,2.446l-.691-.014a4.1,4.1,0,0,0,.939-2.54l.168-8.207a4.128,4.128,0,0,0-.746-2.456" transform="translate(-537.214 -1668.06)" fill="#371a45"/>
        <path id="Path_6738" data-name="Path 6738" d="M763.212,1866.793c0,.3.386,2.76.386,2.76l1.729.026a2.837,2.837,0,0,0,.082-5.508l-1.729-.026s-.46,2.253-.468,2.747" transform="translate(-654.681 -1765.841)" fill="#22a7f0"/>
        <path id="Path_6739" data-name="Path 6739" d="M763.212,1866.793c0,.3.386,2.76.386,2.76l1.729.026a2.837,2.837,0,0,0,.082-5.508l-1.729-.026s-.46,2.253-.468,2.747" transform="translate(-654.681 -1765.841)" fill="#1c7aea"/>
        <path id="Path_6740" data-name="Path 6740" d="M754.258,1859.238a2.548,2.548,0,0,0,1.99-1.014,3.934,3.934,0,0,0,.069-4.655,2.542,2.542,0,0,0-2-1.073l-1.207-.018H753.1a1.243,1.243,0,0,0-1.221,1.005,19.635,19.635,0,0,0-.377,2.343h0a19.911,19.911,0,0,0,.312,2.341,1.24,1.24,0,0,0,1.21,1.053l1.2.018h.036m-1.171-5.518,1.217.01a1.338,1.338,0,0,1,1.03.585,2.7,2.7,0,0,1-.046,3.134,1.347,1.347,0,0,1-1.047.554l-1.2-.018c-.223-1.39-.3-2.023-.306-2.146a21.034,21.034,0,0,1,.354-2.12" transform="translate(-643.586 -1754.883)" fill="#371a45"/>
        <path id="Path_6741" data-name="Path 6741" d="M796.038,1866.764a2.221,2.221,0,1,0,2.2-2.722,2.511,2.511,0,0,0-2.2,2.722" transform="translate(-689.236 -1765.838)" fill="#22a7f0"/>
        <g id="Group_5686" data-name="Group 5686" transform="translate(106.801 98.204)" opacity="0.7">
          <g id="Group_5685" data-name="Group 5685">
            <g id="Group_5684" data-name="Group 5684" clip-path="url(#clip-path-21)">
              <path id="Path_6742" data-name="Path 6742" d="M800.359,1866.83c0,.115-.009.226-.021.335a2.341,2.341,0,0,0-2.064-2.135,2.425,2.425,0,0,0-2.176,2.386,3.37,3.37,0,0,1-.051-.651,2.221,2.221,0,1,1,4.312.065" transform="translate(-796.047 -1864.043)" fill="#fff"/>
            </g>
          </g>
        </g>
        <path id="Path_6743" data-name="Path 6743" d="M800.36,1898.878a2.221,2.221,0,1,1-4.312-.065,3.406,3.406,0,0,1,.079-.693,2.241,2.241,0,0,0,1.983,1.78,2.326,2.326,0,0,0,2.117-2.027,3.477,3.477,0,0,1,.132,1" transform="translate(-689.247 -1797.887)" fill="#1c7aea"/>
        <path id="Path_6744" data-name="Path 6744" d="M787.081,1859.069a3.13,3.13,0,0,0,2.789-3.33c.027-1.859-1.194-3.389-2.723-3.412h-.034a3.13,3.13,0,0,0-2.789,3.33h0c-.028,1.859,1.194,3.389,2.723,3.412h.034m.032-5.509h.016c.834.012,1.524,1,1.507,2.159s-.727,2.115-1.555,2.115h-.016c-.834-.012-1.524-1-1.507-2.16s.728-2.114,1.555-2.114" transform="translate(-678.139 -1754.739)" fill="#371a45"/>
        <path id="Path_6745" data-name="Path 6745" d="M913.86,1776.961h0a.617.617,0,0,0,.615-.619l-.013-4.153a3.478,3.478,0,0,0-1.571-2.9,2.241,2.241,0,0,1-1.014-1.92l.1-5.854a.617.617,0,1,0-1.234-.021l-.1,5.854a3.47,3.47,0,0,0,1.57,2.973,2.246,2.246,0,0,1,1.015,1.875l.013,4.153a.617.617,0,0,0,.617.615" transform="translate(-809.401 -1668.115)" fill="#371a45"/>
        <path id="Path_6746" data-name="Path 6746" d="M374.574,1846.052a3.473,3.473,0,0,1,2.319,2.463,3.687,3.687,0,0,1-1.845,3.7s-8.98,2.391-13.716.3c0,0-3.075-2.516.16-5.349a39.752,39.752,0,0,0,13.081-1.107" transform="translate(-242.849 -1748.795)" fill="#fff"/>
        <g id="Group_5689" data-name="Group 5689" transform="translate(117.163 98.727)" opacity="0.29">
          <g id="Group_5688" data-name="Group 5688">
            <g id="Group_5687" data-name="Group 5687" clip-path="url(#clip-path-22)">
              <path id="Path_6747" data-name="Path 6747" d="M361.336,1878.944c4.736,2.094,13.716-.3,13.716-.3a3.687,3.687,0,0,0,1.845-3.7,2.533,2.533,0,0,0-.368-.994,3.588,3.588,0,0,1-.821,1.42,3.117,3.117,0,0,1-1.591.907c-2.012.466-8.136,1.695-12.169.459a3.067,3.067,0,0,1-1.743-1.37l-.012-.02c-.753,2.039,1.144,3.59,1.144,3.59" transform="translate(-360.015 -1873.957)" fill="#371a45"/>
            </g>
          </g>
        </g>
        <path id="Path_6748" data-name="Path 6748" d="M351.67,1838.719a38.593,38.593,0,0,0,8.766-1.184l.089-.024.082-.043a4.489,4.489,0,0,0,2.277-4.543A4.278,4.278,0,0,0,360,1829.8l-.24-.076-.241.071a39.213,39.213,0,0,1-12.769,1.078l-.354-.034-.268.234a4.432,4.432,0,0,0-1.761,3.4,4.652,4.652,0,0,0,1.622,3.2l.086.07.1.045a13.931,13.931,0,0,0,5.494.931m8.241-2.748c-.982.247-8.769,2.115-12.953.363a2.914,2.914,0,0,1-.947-1.9,2.683,2.683,0,0,1,.95-1.9,40.155,40.155,0,0,0,12.748-1.09,2.485,2.485,0,0,1,1.546,1.713,2.832,2.832,0,0,1-1.344,2.81" transform="translate(-228.025 -1733.323)" fill="#371a45"/>
        <path id="Path_6749" data-name="Path 6749" d="M1202.055,674.51c.149,3.551.84,6.967,2.426,8.285,1.139.947,9.669,1.859,9.669,1.859l-4.276-22.722s-.579.1-1.4.287c-1.706.391-4.457,1.17-5.184,2.247-.79,1.17-1.415,5.708-1.234,10.044" transform="translate(-1124.424 -627.059)" fill="#fff"/>
        <g id="Group_5692" data-name="Group 5692" transform="translate(77.631 34.873)" opacity="0.29">
          <g id="Group_5691" data-name="Group 5691">
            <g id="Group_5690" data-name="Group 5690" clip-path="url(#clip-path-23)">
              <path id="Path_6750" data-name="Path 6750" d="M1202.024,674.51c.149,3.551.84,6.967,2.426,8.285,1.139.947,9.669,1.859,9.669,1.859l-4.276-22.722s-.579.1-1.4.287a39.293,39.293,0,0,0-2.584,11.331c-.244,3.292-2.52,3.28-3.834.96" transform="translate(-1202.024 -661.932)" fill="#371a45"/>
            </g>
          </g>
        </g>
        <path id="Path_6751" data-name="Path 6751" d="M1196.748,668.571l-4.632-24.606-.8.136c-.977.166-5.914,1.088-7.127,2.885-.956,1.416-1.437,5.865-1.4,9.332.028,2.936.423,8.151,2.752,10.088,1.234,1.026,8.048,1.826,10.107,2.047Zm-5.947-22.7,3.919,20.818c-3.656-.435-7.541-1.1-8.13-1.553-3.11-2.586-2.3-15.361-1.034-17.232.536-.793,3.163-1.6,5.245-2.033" transform="translate(-1106.009 -610.039)" fill="#371944"/>
        <path id="Path_6752" data-name="Path 6752" d="M274.758,317.141A30.755,30.755,0,1,1,245.785,284.7a30.755,30.755,0,0,1,28.973,32.439" transform="translate(-132.993 -269.656)" fill="#fff"/>
        <path id="Path_6753" data-name="Path 6753" d="M307.894,534a30.758,30.758,0,1,1-52.958-29.673c1.756,15.443,20.506,28.416,44.071,29.746a68.283,68.283,0,0,0,8.887-.072" transform="translate(-167.918 -477.757)" fill="#d8d8d8"/>
        <path id="Path_6754" data-name="Path 6754" d="M229.29,332.189a31.627,31.627,0,1,0-1.82-.051q.912.051,1.82.051m-.059-61.511c.566,0,1.133.016,1.706.048a29.932,29.932,0,0,1-1.668,59.817c-.566,0-1.133-.016-1.706-.048a29.932,29.932,0,0,1,1.668-59.817" transform="translate(-118.19 -254.858)" fill="#371a45"/>
        <path id="Path_6755" data-name="Path 6755" d="M229.262,332.194a31.618,31.618,0,0,0,31.508-29.8h0a31.578,31.578,0,0,0-63.056-3.559c-.009.169-.017.34-.024.509a31.551,31.551,0,0,0,29.772,32.8q.9.051,1.8.051M259.127,302.3a29.932,29.932,0,0,1-59.792-2.89c.007-.16.014-.323.023-.484a29.933,29.933,0,0,1,59.77,3.374" transform="translate(-118.183 -254.863)" fill="#371a45"/>
        <path id="Path_6756" data-name="Path 6756" d="M277.276,375.648c16.643,0,30.563-12.184,31.453-27.941a28.6,28.6,0,0,0-8.122-21.528,32.688,32.688,0,0,0-21.912-9.937,33.063,33.063,0,0,0-18.5,4.344.828.828,0,0,0-.1.07,31.63,31.63,0,0,0-11.76,22.845c-.009.161-.016.324-.023.484-.01.1-.016.2-.022.3a25.353,25.353,0,0,0,.5,6.628,31.608,31.608,0,0,0,17.66,22.961.788.788,0,0,0,.089.036,33.828,33.828,0,0,0,8.812,1.681q.972.055,1.933.055m-.53-57.815q.924,0,1.854.052a31.048,31.048,0,0,1,20.816,9.431,26.97,26.97,0,0,1,7.668,20.3C306.245,362.5,293.052,374,277.276,374c-.61,0-1.222-.017-1.839-.052a32.187,32.187,0,0,1-8.338-1.584A29.971,29.971,0,0,1,250.4,350.6a23.753,23.753,0,0,1-.468-6.214c.005-.09.009-.171.018-.255,0-.018,0-.035,0-.053.007-.161.013-.324.023-.485a29.98,29.98,0,0,1,11.1-21.616,31.283,31.283,0,0,1,15.673-4.146" transform="translate(-168.8 -299.53)" fill="#371a45"/>
        <path id="Path_6757" data-name="Path 6757" d="M376.342,412.4c-.813,14.4-13.968,25.368-29.382,24.5-13.066-.737-23.562-9.746-25.959-21.243a24.473,24.473,0,0,1-.48-6.406c.006-.1.011-.2.022-.3.972-14.253,14.053-25.064,29.36-24.2,15.414.87,27.251,13.248,26.439,27.646" transform="translate(-240.213 -364.44)" fill="#371a45"/>
        <path id="Path_6758" data-name="Path 6758" d="M374.709,790.383c-.813,14.4-13.968,25.368-29.382,24.5-11.593-.654-21.162-7.819-24.845-17.458a31.1,31.1,0,0,0,22.1,10.825c15.964.9,29.69-9.939,31.594-24.539a24.415,24.415,0,0,1,.537,6.674" transform="translate(-238.58 -742.42)" fill="#220f2d"/>
        <g id="Group_5695" data-name="Group 5695" transform="translate(85.319 24.688)" opacity="0.5">
          <g id="Group_5694" data-name="Group 5694">
            <g id="Group_5693" data-name="Group 5693" clip-path="url(#clip-path-24)">
              <path id="Path_6759" data-name="Path 6759" d="M643.381,475.311s-13.435-4.025-23.448.748l-.032.015a13.06,13.06,0,0,0-5.193,4.479,26.278,26.278,0,0,0-3.156,6.329c-1.938,5.439-1.812,8.35-1.812,8.35a14.594,14.594,0,0,1-1.158-12.406q.234-.672.531-1.366c.045-.107.092-.211.141-.316,0,0,0,0,0-.006a31.99,31.99,0,0,1,1.98-3.337c2.576-3.8,6.928-8.4,13.153-9.065,11.639-1.237,19.648,6.167,18.99,6.575" transform="translate(-607.701 -468.597)" fill="#fff"/>
            </g>
          </g>
        </g>
        <g id="Group_5698" data-name="Group 5698" transform="translate(121.933 42.234)" opacity="0.5">
          <g id="Group_5697" data-name="Group 5697">
            <g id="Group_5696" data-name="Group 5696" clip-path="url(#clip-path-25)">
              <path id="Path_6760" data-name="Path 6760" d="M430.633,806.164c-.206,2.665,1.508,4.975,3.827,5.161s4.366-1.824,4.572-4.489-1.508-4.975-3.827-5.161-4.366,1.824-4.572,4.489" transform="translate(-430.616 -801.663)" fill="#fff"/>
            </g>
          </g>
        </g>
        <g id="Group_5701" data-name="Group 5701" transform="translate(123.734 54.96)" opacity="0.5">
          <g id="Group_5700" data-name="Group 5700">
            <g id="Group_5699" data-name="Group 5699" clip-path="url(#clip-path-26)">
              <path id="Path_6761" data-name="Path 6761" d="M490.481,1045.214a1.894,1.894,0,0,0,1.756,1.993,1.871,1.871,0,0,0,1.722-2.005,1.894,1.894,0,0,0-1.756-1.993,1.871,1.871,0,0,0-1.722,2.005" transform="translate(-490.481 -1043.209)" fill="#fff"/>
            </g>
          </g>
        </g>
        <path id="Path_6762" data-name="Path 6762" d="M195.52,791.417l-2.1,11.934-1.305,7.434-4.207-.037-.4,0c-1.814-.357-2.456-5.365-1.435-11.177.022-.131.047-.265.073-.4,1.052-5.614,3.288-9.825,5.059-9.474l.372.148Z" transform="translate(-52.246 -748.073)" fill="#fff"/>
        <g id="Group_5704" data-name="Group 5704" transform="translate(133.349 50.421)" opacity="0.29">
          <g id="Group_5703" data-name="Group 5703">
            <g id="Group_5702" data-name="Group 5702" clip-path="url(#clip-path-27)">
              <path id="Path_6763" data-name="Path 6763" d="M233.2,961.919l-1.305,7.434-4.207-.037-.4,0c-1.814-.357-2.456-5.365-1.435-11.177.022-.131.047-.265.073-.4l.317-.676s.29,2.556,1.446,3.017c1.223.491,2.339-2.46,2.339-2.46Z" transform="translate(-225.366 -957.062)" fill="#371a45"/>
            </g>
          </g>
        </g>
        <path id="Path_6764" data-name="Path 6764" d="M177.315,796.8a.823.823,0,0,0,.81-.681l3.4-19.369a.823.823,0,0,0-.505-.906l-4.308-1.722a.81.81,0,0,0-.146-.043,2.187,2.187,0,0,0-1.692.413c-1.818,1.245-3.548,5.219-4.41,10.125-.988,5.625-.588,11.6,2.086,12.127a.839.839,0,0,0,.153.016l4.6.041Zm2.475-19.676-3.165,18.024-3.806-.034c-.836-.308-1.816-4.044-.733-10.213.852-4.853,2.516-8.227,3.719-9.051a.817.817,0,0,1,.393-.161Z" transform="translate(-37.441 -733.262)" fill="#371a45"/>
        <path id="Path_6765" data-name="Path 6765" d="M158.744,831.269a.012.012,0,0,0,0,.006c-.056.458-.127.921-.21,1.393-.939,5.346-3.052,9.416-4.723,9.083-1.62-.321-2.229-4.677-1.4-9.836.023-.147.049-.3.076-.447.939-5.346,3.055-9.416,4.723-9.086,1.522.3,2.147,4.154,1.536,8.886" transform="translate(-13.933 -779.038)" fill="#fff"/>
        <path id="Path_6766" data-name="Path 6766" d="M163.2,991.511c-.056.458-.127.921-.21,1.393-.939,5.346-3.052,9.416-4.723,9.082-1.62-.321-2.229-4.677-1.4-9.836.5,1.977,1.619,5.493,3.176,4.706.909-.462,2.2-3.115,3.155-5.346" transform="translate(-18.396 -939.275)" fill="#d8d8d8"/>
        <path id="Path_6767" data-name="Path 6767" d="M139.067,827.833a2.207,2.207,0,0,0,1.258-.424c1.687-1.155,3.29-4.829,4.086-9.359.886-5.046.647-10.713-1.973-11.233a2.08,2.08,0,0,0-1.608.39c-1.687,1.156-3.29,4.829-4.086,9.359-.886,5.046-.647,10.713,1.973,11.233a1.8,1.8,0,0,0,.35.034m3.723-10.068c-.781,4.448-2.3,7.535-3.395,8.286a.554.554,0,0,1-.357.134c-.668-.132-1.7-3.468-.672-9.334.781-4.448,2.3-7.535,3.395-8.286a.558.558,0,0,1,.358-.134c.668.132,1.7,3.468.672,9.334" transform="translate(0.998 -764.278)" fill="#371a45"/>
        <path id="Path_6768" data-name="Path 6768" d="M31.68,961.7c.032-5.747-.854-9.875-2.975-13.88-2.357-4.451-10.515-7.19-12.166-4.4-1.149,1.943.951,3.131,1.649,3.46a.2.2,0,0,1,.088.292,12.2,12.2,0,0,0-1.786,5.79c-.032,2.577.6,4.919,3.761,5.979" transform="translate(120.518 -892.653)" fill="#fff"/>
        <path id="Path_6769" data-name="Path 6769" d="M17.68,947.064a30.009,30.009,0,0,0-2.272-12.625,21.44,21.44,0,0,0-1.05-2.082,11.974,11.974,0,0,0-4.772-4.106,10.9,10.9,0,0,0-6.2-1.345,3.046,3.046,0,0,0-2.768,3.518,3.98,3.98,0,0,0,2.292,2.509l.1.047a.63.63,0,0,1-.336-.673.607.607,0,0,1,.075-.2l-.006.011-.052.086c-1.7,2.817-2.547,6.439-1.178,9.569a5.057,5.057,0,0,0,2.3,2.369,6.683,6.683,0,0,0,1.49.548.412.412,0,0,0,.262-.78,4.757,4.757,0,0,1-2.728-2.695,10.691,10.691,0,0,1,1.316-8.24,1.043,1.043,0,0,0-.507-1.518c-.687-.358-1.567-.945-1.413-1.773a1.513,1.513,0,0,1,1.424-1.155c2.979-.311,6.475,1.489,8.5,3.636a10.481,10.481,0,0,1,1.749,2.939,23.834,23.834,0,0,1,1.765,6.172,38.589,38.589,0,0,1,.366,5.78.823.823,0,0,0,1.646.006" transform="translate(135.341 -878.009)" fill="#371a45"/>
        <path id="Path_6770" data-name="Path 6770" d="M310.915,1310.664a28.308,28.308,0,0,0-.9,5.408" transform="translate(-174.195 -1241.613)" fill="#fff"/>
        <path id="Path_6771" data-name="Path 6771" d="M294.59,1294.624a34.654,34.654,0,0,0-.519,4.186,12.716,12.716,0,0,0,0,1.432.412.412,0,0,0,.823,0,25.571,25.571,0,0,1,1.288-5.2.825.825,0,1,0-1.592-.42" transform="translate(-158.665 -1225.784)" fill="#371a45"/>
        <path id="Path_6772" data-name="Path 6772" d="M1034.65,1312.488a5.416,5.416,0,0,1,5.15,4.433,3.677,3.677,0,0,1-3.717,4.435,5.417,5.417,0,0,1-5.151-4.435,3.678,3.678,0,0,1,3.719-4.433m-1.061,4a2.75,2.75,0,0,0,2.493,2.172,1.105,1.105,0,0,0,.858-.332,1.2,1.2,0,0,0,.2-.982,2.747,2.747,0,0,0-2.491-2.17,1.111,1.111,0,0,0-.86.33,1.207,1.207,0,0,0-.2.982" transform="translate(-941.116 -1243.342)" fill="#dddcdb"/>
        <g id="Group_5707" data-name="Group 5707" transform="translate(89.758 69.146)" opacity="0.7">
          <g id="Group_5706" data-name="Group 5706">
            <g id="Group_5705" data-name="Group 5705" clip-path="url(#clip-path-28)">
              <path id="Path_6773" data-name="Path 6773" d="M1035.469,1312.47a5.416,5.416,0,0,1,5.151,4.435.986.986,0,0,1,.014.111,5.424,5.424,0,0,0-4.783-3.22,3.669,3.669,0,0,0-3.734,4.322,4.775,4.775,0,0,1-.366-1.214,3.677,3.677,0,0,1,3.717-4.435" transform="translate(-1031.694 -1312.47)" fill="#fff"/>
            </g>
          </g>
        </g>
        <path id="Path_6774" data-name="Path 6774" d="M1021.268,1307.382a4.547,4.547,0,0,0,3.535-1.569,4.642,4.642,0,0,0,.994-3.821,6.273,6.273,0,0,0-5.962-5.125,4.548,4.548,0,0,0-3.536,1.568,4.643,4.643,0,0,0-1,3.82,6.275,6.275,0,0,0,5.964,5.127m-1.432-8.869a4.571,4.571,0,0,1,4.337,3.742,3.026,3.026,0,0,1-.623,2.492,2.928,2.928,0,0,1-2.282.99,4.572,4.572,0,0,1-4.339-3.743,3.027,3.027,0,0,1,.624-2.491,2.93,2.93,0,0,1,2.283-.989m1.432,6.177a1.9,1.9,0,0,0,1.485-.622,2,2,0,0,0,.386-1.649,3.583,3.583,0,0,0-3.3-2.859,1.906,1.906,0,0,0-1.485.618,2.012,2.012,0,0,0-.388,1.647h0a3.585,3.585,0,0,0,3.306,2.864m-1.432-3.484a1.945,1.945,0,0,1,1.679,1.478.526.526,0,0,1-.016.318.456.456,0,0,1-.231.042,1.948,1.948,0,0,1-1.681-1.479.224.224,0,0,1,.248-.359m-1.061.489h0Z" transform="translate(-926.301 -1228.543)" fill="#371a45"/>
        <path id="Path_6775" data-name="Path 6775" d="M704.5,1396.66l4.736,14.444,4.24,12.938h23.265l-2.625-8.009-6.351-19.373Z" transform="translate(-620.806 -1323.079)" fill="#edae3e"/>
        <path id="Path_6776" data-name="Path 6776" d="M704.5,1640.535l4.24,12.938h23.265l-2.625-8.009s-2.037,4.676-8.6,5.542a6.266,6.266,0,0,1-7.06-5.738,9.4,9.4,0,0,0-1.909-5.061c-1.868-2.432-5.036-1.138-7.316.327" transform="translate(-616.07 -1552.51)" fill="#d18c28"/>
        <path id="Path_6777" data-name="Path 6777" d="M698.694,1410.059h23.265a.823.823,0,0,0,.782-1.079l-8.975-27.381a.823.823,0,0,0-.782-.567H689.719a.823.823,0,0,0-.782,1.079l8.975,27.381a.823.823,0,0,0,.782.567m22.129-1.646H699.29l-8.436-25.736h21.533Z" transform="translate(-606.023 -1308.274)" fill="#371a45"/>
        <path id="Path_6778" data-name="Path 6778" d="M962.6,1400.275h13.841l-1.131-3.624H961.471Z" transform="translate(-874.045 -1323.07)" fill="#dddcdb"/>
        <g id="Group_5710" data-name="Group 5710" transform="translate(88.094 73.581)" opacity="0.7">
          <g id="Group_5709" data-name="Group 5709">
            <g id="Group_5708" data-name="Group 5708" clip-path="url(#clip-path-29)">
              <path id="Path_6779" data-name="Path 6779" d="M961.484,1398.8l.463,1.481h13.841l-1.132-3.623h-1.52l.257.824a1.015,1.015,0,0,1-.969,1.318Z" transform="translate(-961.484 -1396.66)" fill="#fff"/>
            </g>
          </g>
        </g>
        <path id="Path_6780" data-name="Path 6780" d="M947.805,1386.3h13.841a.823.823,0,0,0,.785-1.068l-1.131-3.624a.823.823,0,0,0-.786-.578H946.674a.823.823,0,0,0-.786,1.068l1.131,3.624a.823.823,0,0,0,.786.578m12.722-1.646H948.41l-.618-1.978H959.91Z" transform="translate(-859.248 -1308.274)" fill="#371a45"/>
        <path id="Path_6781" data-name="Path 6781" d="M1072.629,1572.9a44.5,44.5,0,0,0,1.078,5.034.034.034,0,0,0,0,.008c1.029,3.594,2.286,5.112,3.789,5.11,7.429-.008,7.556-6.435,5.555-10.1-2.191-4.014-7.8-2.463-7.8-2.463l-1.006-3.071s-2.3,1.329-1.617,5.482" transform="translate(-987.604 -1484.844)" fill="#fff"/>
        <g id="Group_5713" data-name="Group 5713" transform="translate(86.105 88.111)" opacity="0.29">
          <g id="Group_5712" data-name="Group 5712">
            <g id="Group_5711" data-name="Group 5711" clip-path="url(#clip-path-30)">
              <path id="Path_6782" data-name="Path 6782" d="M1072.5,1677.454c1.029,3.594,2.286,5.112,3.789,5.11,7.429-.008,7.556-6.435,5.555-10.1,0,0,1.14,5.791-3.218,7.164-4.645,1.46-6.056-1.993-6.126-2.173" transform="translate(-1072.504 -1672.463)" fill="#371a45"/>
            </g>
          </g>
        </g>
        <path id="Path_6783" data-name="Path 6783" d="M1062.731,1569.076h0c3.914,0,5.734-1.69,6.571-3.1,1.507-2.543.938-5.958-.294-8.215-1.98-3.626-6.221-3.327-7.971-3.027l-.776-2.37a.823.823,0,0,0-1.194-.456c-.114.066-2.779,1.667-2.016,6.329,1.227,7.5,2.978,10.842,5.678,10.842m.229-12.87a4.929,4.929,0,0,1,4.606,2.341c.976,1.788,1.494,4.611.323,6.587-.9,1.521-2.636,2.294-5.157,2.3h0c-1.144,0-2.775-1.642-4.054-9.462a5.576,5.576,0,0,1,.457-3.768l.572,1.745a.823.823,0,0,0,1,.537,9.329,9.329,0,0,1,2.253-.277" transform="translate(-972.841 -1470.041)" fill="#371a45"/>
        <path id="Path_6784" data-name="Path 6784" d="M176.275,1332.794a.617.617,0,0,0,.206-1.2c-7.405-2.627-6.671-13.48-6.663-13.589a.617.617,0,0,0-1.231-.094c-.037.484-.818,11.9,7.481,14.847a.614.614,0,0,0,.206.036" transform="translate(-32.72 -1247.939)" fill="#371a45"/>
        <g id="Group_5716" data-name="Group 5716" transform="translate(39.457 62.144)" opacity="0.7">
          <g id="Group_5715" data-name="Group 5715">
            <g id="Group_5714" data-name="Group 5714" clip-path="url(#clip-path-31)">
              <path id="Path_6785" data-name="Path 6785" d="M2007.778,1186.387c.672-.478.037-3.536-2.305-5.434-2.426-1.966-5.728-1.523-5.681-.672.063,1.171,1.894.835,4.393,2.814,1.532,1.213,2.922,3.77,3.594,3.292" transform="translate(-1999.791 -1179.559)" fill="#fff"/>
            </g>
          </g>
        </g>
        <g id="Group_5719" data-name="Group 5719" transform="translate(44.455 69.792)" opacity="0.7">
          <g id="Group_5718" data-name="Group 5718">
            <g id="Group_5717" data-name="Group 5717" clip-path="url(#clip-path-32)">
              <path id="Path_6786" data-name="Path 6786" d="M2000.527,1327.459c.92-.949,1.086-2.386.281-2.668-.937-.329-1.7.86-2.41,1.628-1.232,1.329.565,2.654,2.129,1.04" transform="translate(-1997.988 -1324.734)" fill="#fff"/>
            </g>
          </g>
        </g>
        <path id="Path_6787" data-name="Path 6787" d="M2141.4,558.5a.823.823,0,0,0,.823-.823V534.019a.823.823,0,0,0-1.646,0v23.654a.823.823,0,0,0,.823.823" transform="translate(-2101.941 -505.105)" fill="#371a45"/>
        <path id="Path_6788" data-name="Path 6788" d="M2200.517,599.6a.732.732,0,1,0,.732-.732.732.732,0,0,0-.732.732" transform="translate(-2164.86 -567.321)" fill="#371a45"/>
        <path id="Path_6789" data-name="Path 6789" d="M2200.517,776.014a.732.732,0,1,0,.732-.732.732.732,0,0,0-.732.732" transform="translate(-2164.86 -734.437)" fill="#371a45"/>
        <path id="Path_6790" data-name="Path 6790" d="M2200.517,952.423a.732.732,0,1,0,.732-.732.732.732,0,0,0-.732.732" transform="translate(-2164.86 -901.552)" fill="#371a45"/>
        <g id="Group_5722" data-name="Group 5722" transform="translate(43.577 6.269)" opacity="0.7">
          <g id="Group_5721" data-name="Group 5721">
            <g id="Group_5720" data-name="Group 5720" clip-path="url(#clip-path-33)">
              <path id="Path_6791" data-name="Path 6791" d="M1883.21,119.171c4.024,2.339,11.367,12.672,8.919,15.989-2.328,3.156-12.944-18.328-8.919-15.989" transform="translate(-1882.309 -118.992)" fill="#fff"/>
            </g>
          </g>
        </g>
        <path id="Path_6792" data-name="Path 6792" d="M39.647,221.251c1.3-.455,3.537-2.1,3.537-4.063,0-1.331-.805-2.416-3.047-4.2-1.926-1.506-2.907-2.522-2.907-3.818a2.25,2.25,0,0,1,2.381-2.347c2.312,0,3.678,2.171,4.133,2.171a1.905,1.905,0,0,0,1.506-1.646,1.635,1.635,0,0,0-.665-1.3A6.126,6.126,0,0,0,40.8,204.79a5.661,5.661,0,0,0-5.569,5.5c0,1.471.49,2.732,2.487,4.378,1.751,1.471,2.7,2.137,2.7,3.292,0,.946-.49,1.576-1.436,2.452Zm.876,7.285a2.243,2.243,0,0,0,0-4.483,2.177,2.177,0,0,0-2.172,2.242,2.135,2.135,0,0,0,2.172,2.242" transform="translate(105.945 -194.001)" fill="#fff"/>
        <path id="Path_6793" data-name="Path 6793" d="M11.209,175.2a5.661,5.661,0,0,0-5.568,5.5c0,1.471.49,2.732,2.487,4.378,1.751,1.471,2.7,2.136,2.7,3.292,0,.946-.49,1.576-1.436,2.452l.665.841c1.3-.455,3.537-2.1,3.537-4.063,0-1.331-.805-2.416-3.047-4.2-1.926-1.506-2.907-2.522-2.907-3.818a2.25,2.25,0,0,1,2.381-2.347c2.312,0,3.678,2.171,4.133,2.171a1.905,1.905,0,0,0,1.506-1.646,1.635,1.635,0,0,0-.665-1.3,6.125,6.125,0,0,0-3.783-1.261m-.28,19.263A2.177,2.177,0,0,0,8.758,196.7a2.173,2.173,0,1,0,2.172-2.242m.28-20.909a7.862,7.862,0,0,1,4.844,1.649l.058.052a3.271,3.271,0,0,1,1.192,2.5,3.492,3.492,0,0,1-3.152,3.292,2.638,2.638,0,0,1-1.785-.916,3.77,3.77,0,0,0-2.348-1.255.627.627,0,0,0-.735.7c0,.535.638,1.241,2.275,2.521l.012.009c2.323,1.851,3.667,3.342,3.667,5.49,0,2.368-2.012,4.321-3.8,5.25A3.885,3.885,0,1,1,7.112,196.7a3.847,3.847,0,0,1,2.242-3.553,1.643,1.643,0,0,1-.591-.468l-.665-.841a1.646,1.646,0,0,1,.172-2.229c.908-.841.908-1.046.908-1.244,0-.274-.753-.9-1.625-1.628l-.479-.4c-2.158-1.781-3.079-3.469-3.079-5.642a7.305,7.305,0,0,1,7.214-7.145" transform="translate(135.539 -164.407)" fill="#371a45"/>
      </g>
    </g>
  </g>
</svg>
