<svg xmlns="http://www.w3.org/2000/svg" xmlns:xlink="http://www.w3.org/1999/xlink" width="48" height="44" viewBox="0 0 48 44">
  <defs>
    <clipPath id="clip-Artboard_8">
      <rect width="48" height="44"/>
    </clipPath>
  </defs>
  <g id="Artboard_8" data-name="Artboard – 8" clip-path="url(#clip-Artboard_8)">
    <g id="Group_17581" data-name="Group 17581" transform="translate(4 5)">
      <g id="Group_17580" data-name="Group 17580">
        <g id="Group_17579" data-name="Group 17579" transform="translate(0 -2)">
          <ellipse id="Ellipse_14" data-name="Ellipse 14" cx="20" cy="19.5" rx="20" ry="19.5" fill="#eaeffe"/>
          <g id="Group_17556" data-name="Group 17556" transform="translate(8.973 8.474)">
            <path id="Path_12924" data-name="Path 12924" d="M10.985,22a11.029,11.029,0,1,1,7.779-3.23A11.02,11.02,0,0,1,10.985,22Zm0-21.043A10.045,10.045,0,1,0,18.07,3.9,10.03,10.03,0,0,0,10.985.953Z" transform="translate(0.044 0.043)"/>
            <path id="Path_12925" data-name="Path 12925" d="M48.278,24.644a.493.493,0,0,1-.493-.493V17.333a.492.492,0,0,1,.493-.493.5.5,0,0,1,.493.493V24.15A.5.5,0,0,1,48.278,24.644Z" transform="translate(-37.248 -13.121)"/>
            <path id="Path_12926" data-name="Path 12926" d="M66.96,15.133a.459.459,0,0,1-.227-.059.464.464,0,0,1-.168-.621L66.832,14h0a.444.444,0,0,1,.612-.157.454.454,0,0,1,.168.612l-.267.453a.444.444,0,0,1-.385.227Z" transform="translate(-51.847 -10.733)"/>
            <path id="Path_12927" data-name="Path 12927" d="M28.673,81.564a.448.448,0,0,1-.395-.67l.267-.464a.434.434,0,0,1,.612-.108.455.455,0,0,1,.168.612l-.267.374a.441.441,0,0,1-.385.256Z" transform="translate(-21.995 -62.555)"/>
            <path id="Path_12928" data-name="Path 12928" d="M81.134,67.6a.448.448,0,0,1-.217-.059l-.464-.267h0a.454.454,0,0,1,.454-.78l.453.267h0a.444.444,0,0,1-.227.838Z" transform="translate(-62.578 -51.811)"/>
            <path id="Path_12929" data-name="Path 12929" d="M14.673,29.384a.454.454,0,0,1-.227-.059l-.464-.267a.449.449,0,0,1,.444-.78l.464.267a.444.444,0,0,1-.217.838Z" transform="translate(-10.717 -21.995)"/>
            <path id="Path_12930" data-name="Path 12930" d="M28.8,15.117a.442.442,0,0,1-.394-.227l-.267-.453a.464.464,0,0,1,.168-.622.454.454,0,0,1,.612.168l.267.453h0a.449.449,0,0,1,.046.345.453.453,0,0,1-.43.336Z" transform="translate(-21.889 -10.717)"/>
            <path id="Path_12931" data-name="Path 12931" d="M67.247,81.458a.426.426,0,0,1-.386-.226l-.267-.453h0a.447.447,0,0,1,.769-.453l.267.464a.445.445,0,0,1-.158.612.453.453,0,0,1-.226.059Z" transform="translate(-51.867 -62.448)"/>
            <path id="Path_12932" data-name="Path 12932" d="M14.209,67.54a.449.449,0,0,1-.227-.838l.464-.267a.454.454,0,0,1,.612.168.444.444,0,0,1-.168.612l-.464.325a.421.421,0,0,1-.217,0Z" transform="translate(-10.717 -51.746)"/>
            <path id="Path_12933" data-name="Path 12933" d="M80.722,29.384a.424.424,0,0,1-.336-.226.444.444,0,0,1,.157-.612l.464-.267a.449.449,0,0,1,.444.78L81,29.325a.456.456,0,0,1-.276.059Z" transform="translate(-62.619 -21.995)"/>
            <path id="Path_12934" data-name="Path 12934" d="M9.2,48.842H8.68a.454.454,0,1,1,0-.9H9.2a.454.454,0,1,1,0,.9Z" transform="translate(-6.353 -37.369)"/>
            <path id="Path_12935" data-name="Path 12935" d="M85.731,48.859a.454.454,0,0,1,0-.9h.543a.444.444,0,0,1,.444.444.455.455,0,0,1-.444.454Z" transform="translate(-66.534 -37.386)"/>
            <path id="Path_12936" data-name="Path 12936" d="M48.405,86.473a.454.454,0,0,1-.444-.453v-.533a.449.449,0,0,1,.9.009v.543A.454.454,0,0,1,48.405,86.473Z" transform="translate(-37.386 -66.299)"/>
            <path id="Path_12937" data-name="Path 12937" d="M48.4,9.657a.454.454,0,0,1-.454-.453V8.681a.454.454,0,1,1,.9,0V9.2a.454.454,0,0,1-.444.453Z" transform="translate(-37.368 -6.353)"/>
            <path id="Path_12938" data-name="Path 12938" d="M34.739,52.158a.5.5,0,0,1-.355-.848l2.871-2.861h0a.492.492,0,0,1,.69.7l-2.861,2.861h0a.493.493,0,0,1-.346.148Z" transform="translate(-26.689 -37.656)"/>
          </g>
          <ellipse id="Ellipse_24" data-name="Ellipse 24" cx="20" cy="19.5" rx="20" ry="19.5" fill="#eaeffe"/>
          <g id="Group_17568" data-name="Group 17568" transform="translate(8.973 8.474)">
            <path id="Path_12924-2" data-name="Path 12924" d="M10.985,22a11.029,11.029,0,1,1,7.779-3.23A11.02,11.02,0,0,1,10.985,22Zm0-21.043A10.045,10.045,0,1,0,18.07,3.9,10.03,10.03,0,0,0,10.985.953Z" transform="translate(0.044 0.043)"/>
            <path id="Path_12925-2" data-name="Path 12925" d="M48.278,24.644a.493.493,0,0,1-.493-.493V17.333a.492.492,0,0,1,.493-.493.5.5,0,0,1,.493.493V24.15A.5.5,0,0,1,48.278,24.644Z" transform="translate(-37.248 -13.121)"/>
            <path id="Path_12926-2" data-name="Path 12926" d="M66.96,15.133a.459.459,0,0,1-.227-.059.464.464,0,0,1-.168-.621L66.832,14h0a.444.444,0,0,1,.612-.157.454.454,0,0,1,.168.612l-.267.453a.444.444,0,0,1-.385.227Z" transform="translate(-51.847 -10.733)"/>
            <path id="Path_12927-2" data-name="Path 12927" d="M28.673,81.564a.448.448,0,0,1-.395-.67l.267-.464a.434.434,0,0,1,.612-.108.455.455,0,0,1,.168.612l-.267.374a.441.441,0,0,1-.385.256Z" transform="translate(-21.995 -62.555)"/>
            <path id="Path_12928-2" data-name="Path 12928" d="M81.134,67.6a.448.448,0,0,1-.217-.059l-.464-.267h0a.454.454,0,0,1,.454-.78l.453.267h0a.444.444,0,0,1-.227.838Z" transform="translate(-62.578 -51.811)"/>
            <path id="Path_12929-2" data-name="Path 12929" d="M14.673,29.384a.454.454,0,0,1-.227-.059l-.464-.267a.449.449,0,0,1,.444-.78l.464.267a.444.444,0,0,1-.217.838Z" transform="translate(-10.717 -21.995)"/>
            <path id="Path_12930-2" data-name="Path 12930" d="M28.8,15.117a.442.442,0,0,1-.394-.227l-.267-.453a.464.464,0,0,1,.168-.622.454.454,0,0,1,.612.168l.267.453h0a.449.449,0,0,1,.046.345.453.453,0,0,1-.43.336Z" transform="translate(-21.889 -10.717)"/>
            <path id="Path_12931-2" data-name="Path 12931" d="M67.247,81.458a.426.426,0,0,1-.386-.226l-.267-.453h0a.447.447,0,0,1,.769-.453l.267.464a.445.445,0,0,1-.158.612.453.453,0,0,1-.226.059Z" transform="translate(-51.867 -62.448)"/>
            <path id="Path_12932-2" data-name="Path 12932" d="M14.209,67.54a.449.449,0,0,1-.227-.838l.464-.267a.454.454,0,0,1,.612.168.444.444,0,0,1-.168.612l-.464.325a.421.421,0,0,1-.217,0Z" transform="translate(-10.717 -51.746)"/>
            <path id="Path_12933-2" data-name="Path 12933" d="M80.722,29.384a.424.424,0,0,1-.336-.226.444.444,0,0,1,.157-.612l.464-.267a.449.449,0,0,1,.444.78L81,29.325a.456.456,0,0,1-.276.059Z" transform="translate(-62.619 -21.995)"/>
            <path id="Path_12934-2" data-name="Path 12934" d="M9.2,48.842H8.68a.454.454,0,1,1,0-.9H9.2a.454.454,0,1,1,0,.9Z" transform="translate(-6.353 -37.369)"/>
            <path id="Path_12935-2" data-name="Path 12935" d="M85.731,48.859a.454.454,0,0,1,0-.9h.543a.444.444,0,0,1,.444.444.455.455,0,0,1-.444.454Z" transform="translate(-66.534 -37.386)"/>
            <path id="Path_12936-2" data-name="Path 12936" d="M48.405,86.473a.454.454,0,0,1-.444-.453v-.533a.449.449,0,0,1,.9.009v.543A.454.454,0,0,1,48.405,86.473Z" transform="translate(-37.386 -66.299)"/>
            <path id="Path_12937-2" data-name="Path 12937" d="M48.4,9.657a.454.454,0,0,1-.454-.453V8.681a.454.454,0,1,1,.9,0V9.2a.454.454,0,0,1-.444.453Z" transform="translate(-37.368 -6.353)"/>
            <path id="Path_12938-2" data-name="Path 12938" d="M34.739,52.158a.5.5,0,0,1-.355-.848l2.871-2.861h0a.492.492,0,0,1,.69.7l-2.861,2.861h0a.493.493,0,0,1-.346.148Z" transform="translate(-26.689 -37.656)"/>
          </g>
        </g>
      </g>
    </g>
  </g>
</svg>
